<svg width="337" height="240" viewBox="0 0 337 240" fill="none" xmlns="http://www.w3.org/2000/svg">
<g filter="url(#filter0_b_222_5660)">
<path d="M13.7483 0.198289C12.704 -0.683527 22.9724 1.50754 27.8482 4.1656C31.9669 6.41095 36.2036 11.6594 36.7258 11.6594C37.2481 11.6594 37.4227 11.6594 37.7703 11.6594C123.975 11.6594 242.008 11.6594 330.122 11.6594C333.928 11.6594 337 14.7448 337 18.5508V233.063C337 236.887 333.887 239.979 330.063 239.954L6.84608 237.824C3.05788 237.799 0.000129957 234.721 0.000129957 230.933V32.2031C0.000129957 32.2031 -0.000242288 13.8548 0.000129957 12.357C0.00054389 10.6914 21.1131 11.9825 21.3318 11.2336C22.7317 6.44176 14.7927 1.0801 13.7483 0.198289Z" fill="url(#paint0_linear_222_5660)" fill-opacity="0.8"/>
<path d="M14.2283 0.258699C14.3804 0.269212 14.5685 0.289354 14.7911 0.320035C15.6703 0.441216 16.9985 0.713108 18.517 1.09687C21.5577 1.86532 25.319 3.07151 27.7285 4.3851C29.7555 5.49013 31.8235 7.34233 33.4615 8.93381C33.9694 9.42731 34.4297 9.88944 34.8353 10.2967C35.0856 10.548 35.3151 10.7784 35.5221 10.9823C35.7899 11.2461 36.0199 11.4656 36.2014 11.6199C36.2917 11.6967 36.3758 11.7625 36.4503 11.8103C36.4875 11.8342 36.5273 11.8569 36.5681 11.8743C36.606 11.8904 36.6616 11.9094 36.7258 11.9094H36.7289H36.7319H36.735H36.738H36.741H36.7441H36.7471H36.7501H36.7531H36.756H36.759H36.762H36.765H36.7679H36.7709H36.7738H36.7767H36.7796H36.7826H36.7855H36.7884H36.7913H36.7942H36.797H36.7999H36.8028H36.8056H36.8085H36.8113H36.8142H36.817H36.8198H36.8226H36.8254H36.8282H36.831H36.8338H36.8366H36.8394H36.8421H36.8449H36.8476H36.8504H36.8531H36.8558H36.8586H36.8613H36.864H36.8667H36.8694H36.8721H36.8747H36.8774H36.8801H36.8827H36.8854H36.888H36.8907H36.8933H36.8959H36.8986H36.9012H36.9038H36.9064H36.909H36.9116H36.9142H36.9167H36.9193H36.9219H36.9244H36.927H36.9295H36.9321H36.9346H36.9371H36.9396H36.9421H36.9447H36.9472H36.9496H36.9521H36.9546H36.9571H36.9596H36.962H36.9645H36.9669H36.9694H36.9718H36.9743H36.9767H36.9791H36.9815H36.984H36.9864H36.9888H36.9912H36.9935H36.9959H36.9983H37.0007H37.003H37.0054H37.0078H37.0101H37.0125H37.0148H37.0171H37.0195H37.0218H37.0241H37.0264H37.0287H37.031H37.0333H37.0356H37.0379H37.0402H37.0424H37.0447H37.047H37.0492H37.0515H37.0537H37.056H37.0582H37.0605H37.0627H37.0649H37.0671H37.0694H37.0716H37.0738H37.076H37.0782H37.0804H37.0825H37.0847H37.0869H37.0891H37.0912H37.0934H37.0956H37.0977H37.0999H37.102H37.1041H37.1063H37.1084H37.1105H37.1127H37.1148H37.1169H37.119H37.1211H37.1232H37.1253H37.1274H37.1295H37.1316H37.1336H37.1357H37.1378H37.1398H37.1419H37.144H37.146H37.1481H37.1501H37.1522H37.1542H37.1562H37.1583H37.1603H37.1623H37.1643H37.1663H37.1684H37.1704H37.1724H37.1744H37.1764H37.1783H37.1803H37.1823H37.1843H37.1863H37.1883H37.1902H37.1922H37.1942H37.1961H37.1981H37.2H37.202H37.2039H37.2059H37.2078H37.2097H37.2117H37.2136H37.2155H37.2174H37.2194H37.2213H37.2232H37.2251H37.227H37.2289H37.2308H37.2327H37.2346H37.2365H37.2384H37.2403H37.2422H37.244H37.2459H37.2478H37.2497H37.2515H37.2534H37.2553H37.2571H37.259H37.2608H37.2627H37.2645H37.2664H37.2682H37.2701H37.2719H37.2737H37.2756H37.2774H37.2792H37.2811H37.2829H37.2847H37.2865H37.2883H37.2902H37.292H37.2938H37.2956H37.2974H37.2992H37.301H37.3028H37.3046H37.3064H37.3082H37.31H37.3118H37.3136H37.3153H37.3171H37.3189H37.3207H37.3225H37.3242H37.326H37.3278H37.3295H37.3313H37.3331H37.3348H37.3366H37.3384H37.3401H37.3419H37.3436H37.3454H37.3471H37.3489H37.3507H37.3524H37.3541H37.3559H37.3576H37.3594H37.3611H37.3629H37.3646H37.3663H37.3681H37.3698H37.3715H37.3733H37.375H37.3767H37.3785H37.3802H37.3819H37.3836H37.3854H37.3871H37.3888H37.3905H37.3922H37.394H37.3957H37.3974H37.3991H37.4008H37.4025H37.4043H37.406H37.4077H37.4094H37.4111H37.4128H37.4145H37.4162H37.4179H37.4196H37.4214H37.4231H37.4248H37.4265H37.4282H37.4299H37.4316H37.4333H37.435H37.4367H37.4384H37.4401H37.4418H37.4435H37.4452H37.4469H37.4486H37.4503H37.452H37.4537H37.4554H37.4571H37.4588H37.4605H37.4622H37.4639H37.4656H37.4673H37.469H37.4707H37.4724H37.4741H37.4758H37.4775H37.4792H37.4809H37.4826H37.4843H37.486H37.4877H37.4894H37.4911H37.4928H37.4945H37.4962H37.4979H37.4996H37.5014H37.5031H37.5048H37.5065H37.5082H37.5099H37.5116H37.5133H37.515H37.5167H37.5184H37.5202H37.5219H37.5236H37.5253H37.527H37.5287H37.5305H37.5322H37.5339H37.5356H37.5373H37.5391H37.5408H37.5425H37.5442H37.546H37.5477H37.5494H37.5512H37.5529H37.5546H37.5564H37.5581H37.5598H37.5616H37.5633H37.565H37.5668H37.5685H37.5703H37.572H37.5738H37.5755H37.5773H37.579H37.5808H37.5825H37.5843H37.5861H37.5878H37.5896H37.5913H37.5931H37.5949H37.5966H37.5984H37.6002H37.602H37.6037H37.6055H37.6073H37.6091H37.6109H37.6127H37.6144H37.6162H37.618H37.6198H37.6216H37.6234H37.6252H37.627H37.6288H37.6306H37.6325H37.6343H37.6361H37.6379H37.6397H37.6415H37.6434H37.6452H37.647H37.6489H37.6507H37.6525H37.6544H37.6562H37.6581H37.6599H37.6618H37.6636H37.6655H37.6673H37.6692H37.671H37.6729H37.6748H37.6767H37.6785H37.6804H37.6823H37.6842H37.6861H37.6879H37.6898H37.6917H37.6936H37.6955H37.6974H37.6993H37.7013H37.7032H37.7051H37.707H37.7089H37.7109H37.7128H37.7147H37.7167H37.7186H37.7205H37.7225H37.7244H37.7264H37.7283H37.7303H37.7323H37.7342H37.7362H37.7382H37.7402H37.7421H37.7441H37.7461H37.7481H37.7501H37.7521H37.7541H37.7561H37.7581H37.7601H37.7622H37.7642H37.7662H37.7682H37.7703H38.2757H38.7819H39.2889H39.7965H40.3049H40.8139H41.3237H41.8342H42.3454H42.8573H43.3699H43.8832H44.3972H44.9119H45.4273H45.9433H46.4601H46.9775H47.4956H48.0144H48.5339H49.054H49.5748H50.0963H50.6184H51.1412H51.6646H52.1887H52.7135H53.2388H53.7649H54.2916H54.8189H55.3469H55.8755H56.4047H56.9345H57.465H57.9961H58.5279H59.0602H59.5932H60.1267H60.6609H61.1957H61.7311H62.2671H62.8037H63.3409H63.8787H64.4171H64.956H65.4956H66.0357H66.5764H67.1177H67.6595H68.202H68.745H69.2885H69.8327H70.3774H70.9226H71.4684H72.0148H72.5617H73.1091H73.6571H74.2056H74.7547H75.3043H75.8544H76.4051H76.9563H77.508H78.0602H78.613H79.1663H79.7201H80.2744H80.8292H81.3845H81.9403H82.4966H83.0534H83.6107H84.1685H84.7268H85.2856H85.8448H86.4045H86.9648H87.5254H88.0866H88.6482H89.2103H89.7729H90.3359H90.8993H91.4633H92.0276H92.5925H93.1577H93.7235H94.2896H94.8562H95.4233H95.9907H96.5586H97.127H97.6957H98.2649H98.8345H99.4045H99.9749H100.546H101.117H101.689H102.261H102.833H103.406H103.979H104.553H105.127H105.701H106.276H106.851H107.427H108.003H108.579H109.156H109.733H110.31H110.888H111.466H112.045H112.623H113.203H113.782H114.362H114.942H115.523H116.104H116.685H117.266H117.848H118.43H119.013H119.596H120.179H120.762H121.346H121.93H122.515H123.1H123.685H124.27H124.855H125.441H126.028H126.614H127.201H127.788H128.375H128.963H129.551H130.139H130.727H131.316H131.905H132.494H133.083H133.673H134.263H134.853H135.444H136.034H136.625H137.216H137.808H138.399H138.991H139.583H140.176H140.768H141.361H141.954H142.547H143.141H143.734H144.328H144.922H145.516H146.111H146.705H147.3H147.895H148.49H149.085H149.681H150.277H150.872H151.468H152.065H152.661H153.258H153.854H154.451H155.048H155.645H156.242H156.84H157.438H158.035H158.633H159.231H159.829H160.428H161.026H161.624H162.223H162.822H163.421H164.02H164.619H165.218H165.817H166.417H167.016H167.616H168.215H168.815H169.415H170.015H170.615H171.215H171.815H172.416H173.016H173.616H174.217H174.817H175.418H176.019H176.619H177.22H177.821H178.422H179.023H179.624H180.225H180.826H181.427H182.028H182.629H183.23H183.831H184.433H185.034H185.635H186.236H186.837H187.439H188.04H188.641H189.242H189.844H190.445H191.046H191.647H192.248H192.85H193.451H194.052H194.653H195.254H195.855H196.456H197.057H197.658H198.259H198.859H199.46H200.061H200.662H201.262H201.863H202.463H203.064H203.664H204.264H204.864H205.464H206.064H206.664H207.264H207.864H208.464H209.063H209.663H210.262H210.861H211.461H212.06H212.659H213.258H213.856H214.455H215.053H215.652H216.25H216.848H217.446H218.044H218.642H219.239H219.837H220.434H221.031H221.628H222.225H222.821H223.418H224.014H224.61H225.206H225.802H226.398H226.993H227.589H228.184H228.779H229.374H229.968H230.562H231.157H231.751H232.344H232.938H233.531H234.124H234.717H235.31H235.903H236.495H237.087H237.679H238.27H238.862H239.453H240.044H240.634H241.225H241.815H242.405H242.994H243.584H244.173H244.762H245.35H245.939H246.527H247.115H247.702H248.29H248.877H249.463H250.05H250.636H251.222H251.807H252.393H252.978H253.562H254.147H254.731H255.314H255.898H256.481H257.064H257.646H258.228H258.81H259.392H259.973H260.554H261.134H261.714H262.294H262.874H263.453H264.031H264.61H265.188H265.766H266.343H266.92H267.497H268.073H268.649H269.224H269.799H270.374H270.948H271.522H272.096H272.669H273.242H273.814H274.386H274.958H275.529H276.1H276.67H277.24H277.81H278.379H278.947H279.516H280.083H280.651H281.218H281.784H282.35H282.916H283.481H284.046H284.61H285.174H285.738H286.301H286.863H287.425H287.987H288.548H289.108H289.668H290.228H290.787H291.346H291.904H292.462H293.019H293.576H294.132H294.688H295.243H295.798H296.352H296.906H297.459H298.011H298.564H299.115H299.666H300.217H300.767H301.317H301.866H302.414H302.962H303.509H304.056H304.602H305.148H305.693H306.238H306.782H307.325H307.868H308.41H308.952H309.493H310.034H310.574H311.114H311.652H312.191H312.728H313.265H313.802H314.338H314.873H315.408H315.942H316.475H317.008H317.541H318.072H318.603H319.134H319.663H320.192H320.721H321.249H321.776H322.303H322.828H323.354H323.878H324.402H324.926H325.448H325.97H326.492H327.012H327.533H328.052H328.571H329.089H329.606H330.122C333.79 11.9094 336.75 14.8822 336.75 18.5508V233.063C336.75 236.748 333.75 239.729 330.065 239.704L6.84773 237.574C3.19695 237.55 0.25013 234.583 0.25013 230.933V32.2031H0.000129957C0.25013 32.2031 0.25013 32.203 0.25013 32.2029V32.2023L0.25013 32.1997L0.25013 32.1898L0.250129 32.1504L0.250126 31.9967L0.250115 31.4118L0.250078 29.3128L0.24999 22.8417C0.249944 18.0992 0.249944 13.172 0.250126 12.3726C0.258787 12.3618 0.284873 12.336 0.354681 12.2989C0.479014 12.2328 0.679449 12.1667 0.960963 12.1055C1.51955 11.9842 2.32971 11.8959 3.31833 11.8336C5.29181 11.7093 7.93013 11.6911 10.5831 11.7016C11.6237 11.7057 12.6669 11.7142 13.6721 11.7225C15.225 11.7352 16.687 11.7471 17.9078 11.7409C18.9134 11.7357 19.7626 11.7182 20.369 11.6781C20.6708 11.6581 20.9213 11.632 21.1035 11.5969C21.1933 11.5796 21.2786 11.5579 21.3486 11.5283C21.3837 11.5136 21.4245 11.4928 21.4622 11.4628C21.4992 11.4334 21.5489 11.3822 21.5718 11.3037C21.9445 10.028 21.6903 8.72943 21.1103 7.50479C20.5308 6.28124 19.6176 5.11235 18.6382 4.07782C17.0948 2.44748 15.3459 1.11218 14.4363 0.417731C14.361 0.360268 14.2915 0.30719 14.2283 0.258699ZM0.246307 12.3783C0.246262 12.3783 0.246465 12.3778 0.247052 12.3768L0.246307 12.3783Z" stroke="white" stroke-opacity="0.8" stroke-width="0.5"/>
</g>
<defs>
<filter id="filter0_b_222_5660" x="-8.61423" y="-8.61423" width="354.228" height="257.183" filterUnits="userSpaceOnUse" color-interpolation-filters="sRGB">
<feFlood flood-opacity="0" result="BackgroundImageFix"/>
<feGaussianBlur in="BackgroundImageFix" stdDeviation="4.30712"/>
<feComposite in2="SourceAlpha" operator="in" result="effect1_backgroundBlur_222_5660"/>
<feBlend mode="normal" in="SourceGraphic" in2="effect1_backgroundBlur_222_5660" result="shape"/>
</filter>
<linearGradient id="paint0_linear_222_5660" x1="132.447" y1="7.69225" x2="132.715" y2="233.218" gradientUnits="userSpaceOnUse">
<stop offset="0.104372" stop-color="#0090FF"/>
<stop offset="1" stop-color="#0062D7"/>
</linearGradient>
</defs>
</svg>
