<svg width="284" height="228" viewBox="0 0 284 228" fill="none" xmlns="http://www.w3.org/2000/svg">
<g filter="url(#filter0_b_222_5660)">
<path d="M11.7373 0.188375C10.8577 -0.64935 19.5064 1.43216 23.6131 3.95732C27.0821 6.09041 30.6505 11.0764 31.0904 11.0764C31.5302 11.0764 31.6773 11.0764 31.9701 11.0764C104.22 11.0764 203.015 11.0764 277.111 11.0764C280.917 11.0764 284 14.1618 284 17.9678V221.057C284 224.883 280.883 227.977 277.057 227.948L6.99787 225.941C3.21196 225.912 0.157712 222.835 0.157712 219.049V30.5929C0.157712 30.5929 -0.5 11.0764 1.49983 11.0764C4.54105 11.0764 17.9403 11.3834 18.1246 10.672C19.3037 6.11968 12.6169 1.0261 11.7373 0.188375Z" fill="url(#paint0_linear_222_5660)" fill-opacity="0.8"/>
<path d="M0.407712 30.5929H0.407854L0.40757 30.5845L0.157712 30.5929C0.40757 30.5845 0.407568 30.5845 0.407563 30.5843L0.407542 30.5837L0.407454 30.5811L0.407108 30.5706L0.405758 30.529L0.400699 30.3662C0.396379 30.2236 0.3903 30.0142 0.38327 29.7478C0.369209 29.2148 0.351348 28.4532 0.336157 27.5393C0.30577 25.7113 0.286089 23.2748 0.328796 20.8391C0.371537 18.4015 0.47667 15.9723 0.694665 14.1557C0.803928 13.2452 0.940043 12.5023 1.10575 11.9923C1.1891 11.7358 1.27465 11.5552 1.35665 11.4436C1.43967 11.3307 1.48892 11.3264 1.49983 11.3264C2.03768 11.3264 2.91394 11.3363 3.98913 11.3483C5.9162 11.37 8.48231 11.3988 10.8844 11.391C12.7617 11.3849 14.5541 11.3566 15.8903 11.2849C16.5572 11.2492 17.1175 11.2023 17.5199 11.1407C17.7196 11.1102 17.8913 11.0744 18.021 11.0306C18.0851 11.0089 18.1506 10.9815 18.2067 10.9446C18.2577 10.9111 18.3379 10.8456 18.3666 10.7346C18.6793 9.52734 18.4666 8.29762 17.9782 7.13442C17.4901 5.97194 16.7204 4.86058 15.8945 3.87649C14.5927 2.32545 13.1156 1.05361 12.3504 0.394713C12.2959 0.347779 12.245 0.303954 12.1981 0.263361C12.3118 0.274009 12.4478 0.291214 12.6059 0.31579C13.3429 0.430366 14.4589 0.687936 15.7368 1.05219C18.296 1.7817 21.4584 2.92593 23.4821 4.17028C25.184 5.21674 26.923 6.9729 28.303 8.48529C28.7307 8.95408 29.118 9.39261 29.4595 9.77927C29.6704 10.0181 29.8638 10.2371 30.0385 10.4313C30.264 10.6819 30.4583 10.891 30.612 11.0384C30.6883 11.1117 30.7605 11.1754 30.8254 11.2224C30.8578 11.2459 30.8938 11.2691 30.9317 11.2874C30.9663 11.304 31.0226 11.3264 31.0904 11.3264H31.0929H31.0955H31.0981H31.1006H31.1032H31.1057H31.1082H31.1108H31.1133H31.1158H31.1183H31.1208H31.1233H31.1258H31.1283H31.1308H31.1332H31.1357H31.1382H31.1406H31.143H31.1455H31.1479H31.1503H31.1528H31.1552H31.1576H31.16H31.1624H31.1648H31.1671H31.1695H31.1719H31.1743H31.1766H31.179H31.1813H31.1836H31.186H31.1883H31.1906H31.1929H31.1953H31.1976H31.1999H31.2022H31.2044H31.2067H31.209H31.2113H31.2135H31.2158H31.218H31.2203H31.2225H31.2248H31.227H31.2292H31.2314H31.2337H31.2359H31.2381H31.2403H31.2424H31.2446H31.2468H31.249H31.2512H31.2533H31.2555H31.2576H31.2598H31.2619H31.2641H31.2662H31.2683H31.2704H31.2726H31.2747H31.2768H31.2789H31.281H31.2831H31.2852H31.2872H31.2893H31.2914H31.2934H31.2955H31.2976H31.2996H31.3017H31.3037H31.3057H31.3078H31.3098H31.3118H31.3138H31.3158H31.3179H31.3199H31.3219H31.3239H31.3258H31.3278H31.3298H31.3318H31.3337H31.3357H31.3377H31.3396H31.3416H31.3435H31.3455H31.3474H31.3493H31.3513H31.3532H31.3551H31.357H31.359H31.3609H31.3628H31.3647H31.3666H31.3684H31.3703H31.3722H31.3741H31.376H31.3778H31.3797H31.3816H31.3834H31.3853H31.3871H31.389H31.3908H31.3926H31.3945H31.3963H31.3981H31.4H31.4018H31.4036H31.4054H31.4072H31.409H31.4108H31.4126H31.4144H31.4162H31.418H31.4197H31.4215H31.4233H31.4251H31.4268H31.4286H31.4303H31.4321H31.4338H31.4356H31.4373H31.4391H31.4408H31.4425H31.4443H31.446H31.4477H31.4494H31.4512H31.4529H31.4546H31.4563H31.458H31.4597H31.4614H31.4631H31.4648H31.4665H31.4681H31.4698H31.4715H31.4732H31.4748H31.4765H31.4782H31.4798H31.4815H31.4832H31.4848H31.4865H31.4881H31.4898H31.4914H31.493H31.4947H31.4963H31.4979H31.4996H31.5012H31.5028H31.5044H31.506H31.5077H31.5093H31.5109H31.5125H31.5141H31.5157H31.5173H31.5189H31.5205H31.5221H31.5237H31.5252H31.5268H31.5284H31.53H31.5316H31.5331H31.5347H31.5363H31.5378H31.5394H31.541H31.5425H31.5441H31.5456H31.5472H31.5488H31.5503H31.5518H31.5534H31.5549H31.5565H31.558H31.5596H31.5611H31.5626H31.5641H31.5657H31.5672H31.5687H31.5703H31.5718H31.5733H31.5748H31.5763H31.5778H31.5793H31.5809H31.5824H31.5839H31.5854H31.5869H31.5884H31.5899H31.5914H31.5929H31.5944H31.5959H31.5974H31.5989H31.6003H31.6018H31.6033H31.6048H31.6063H31.6078H31.6092H31.6107H31.6122H31.6137H31.6152H31.6166H31.6181H31.6196H31.621H31.6225H31.624H31.6254H31.6269H31.6284H31.6298H31.6313H31.6328H31.6342H31.6357H31.6371H31.6386H31.64H31.6415H31.643H31.6444H31.6459H31.6473H31.6488H31.6502H31.6517H31.6531H31.6546H31.656H31.6574H31.6589H31.6603H31.6618H31.6632H31.6647H31.6661H31.6675H31.669H31.6704H31.6719H31.6733H31.6747H31.6762H31.6776H31.679H31.6805H31.6819H31.6834H31.6848H31.6862H31.6877H31.6891H31.6905H31.692H31.6934H31.6948H31.6963H31.6977H31.6991H31.7006H31.702H31.7034H31.7049H31.7063H31.7077H31.7092H31.7106H31.712H31.7134H31.7149H31.7163H31.7177H31.7192H31.7206H31.722H31.7235H31.7249H31.7263H31.7278H31.7292H31.7306H31.7321H31.7335H31.7349H31.7364H31.7378H31.7392H31.7407H31.7421H31.7436H31.745H31.7464H31.7479H31.7493H31.7507H31.7522H31.7536H31.7551H31.7565H31.7579H31.7594H31.7608H31.7623H31.7637H31.7652H31.7666H31.7681H31.7695H31.771H31.7724H31.7739H31.7753H31.7768H31.7782H31.7797H31.7811H31.7826H31.784H31.7855H31.787H31.7884H31.7899H31.7913H31.7928H31.7943H31.7957H31.7972H31.7987H31.8001H31.8016H31.8031H31.8045H31.806H31.8075H31.809H31.8105H31.8119H31.8134H31.8149H31.8164H31.8179H31.8193H31.8208H31.8223H31.8238H31.8253H31.8268H31.8283H31.8298H31.8313H31.8328H31.8343H31.8358H31.8373H31.8388H31.8403H31.8418H31.8433H31.8449H31.8464H31.8479H31.8494H31.8509H31.8525H31.854H31.8555H31.857H31.8586H31.8601H31.8616H31.8632H31.8647H31.8662H31.8678H31.8693H31.8709H31.8724H31.874H31.8755H31.8771H31.8787H31.8802H31.8818H31.8833H31.8849H31.8865H31.888H31.8896H31.8912H31.8928H31.8944H31.8959H31.8975H31.8991H31.9007H31.9023H31.9039H31.9055H31.9071H31.9087H31.9103H31.9119H31.9135H31.9151H31.9168H31.9184H31.92H31.9216H31.9233H31.9249H31.9265H31.9282H31.9298H31.9314H31.9331H31.9347H31.9364H31.938H31.9397H31.9414H31.943H31.9447H31.9464H31.948H31.9497H31.9514H31.9531H31.9547H31.9564H31.9581H31.9598H31.9615H31.9632H31.9649H31.9666H31.9683H31.9701H32.3937H32.8179H33.2428H33.6682H34.0943H34.5209H34.9482H35.376H35.8044H36.2334H36.663H37.0932H37.524H37.9553H38.3872H38.8197H39.2527H39.6864H40.1205H40.5553H40.9906H41.4265H41.8629H42.2999H42.7374H43.1755H43.6142H44.0533H44.4931H44.9333H45.3741H45.8155H46.2574H46.6998H47.1427H47.5862H48.0302H48.4747H48.9197H49.3652H49.8113H50.2579H50.705H51.1526H51.6007H52.0493H52.4984H52.948H53.3982H53.8488H54.2999H54.7514H55.2035H55.6561H56.1091H56.5627H57.0167H57.4712H57.9261H58.3816H58.8375H59.2938H59.7507H60.208H60.6657H61.124H61.5826H62.0418H62.5014H62.9614H63.4219H63.8828H64.3442H64.806H65.2682H65.7309H66.194H66.6576H67.1215H67.5859H68.0508H68.516H68.9817H69.4478H69.9143H70.3812H70.8485H71.3162H71.7844H72.2529H72.7218H73.1912H73.6609H74.1311H74.6016H75.0725H75.5438H76.0155H76.4876H76.96H77.4328H77.9061H78.3796H78.8536H79.3279H79.8026H80.2776H80.7531H81.2288H81.705H82.1815H82.6583H83.1355H83.613H84.0909H84.5692H85.0477H85.5267H86.0059H86.4855H86.9654H87.4457H87.9262H88.4071H88.8884H89.3699H89.8518H90.334H90.8165H91.2993H91.7824H92.2658H92.7496H93.2336H93.7179H94.2026H94.6875H95.1727H95.6582H96.144H96.6301H97.1165H97.6032H98.0901H98.5773H99.0648H99.5526H100.041H100.529H101.017H101.506H101.995H102.485H102.974H103.464H103.954H104.445H104.935H105.426H105.917H106.409H106.9H107.392H107.884H108.376H108.869H109.362H109.855H110.348H110.841H111.335H111.829H112.323H112.817H113.312H113.806H114.301H114.796H115.292H115.787H116.283H116.779H117.275H117.771H118.267H118.764H119.261H119.758H120.255H120.752H121.25H121.747H122.245H122.743H123.242H123.74H124.238H124.737H125.236H125.735H126.234H126.733H127.233H127.732H128.232H128.732H129.232H129.732H130.232H130.732H131.233H131.733H132.234H132.735H133.236H133.737H134.238H134.739H135.241H135.742H136.244H136.746H137.248H137.749H138.251H138.754H139.256H139.758H140.26H140.763H141.265H141.768H142.271H142.773H143.276H143.779H144.282H144.785H145.288H145.791H146.295H146.798H147.301H147.805H148.308H148.811H149.315H149.818H150.322H150.826H151.329H151.833H152.337H152.84H153.344H153.848H154.352H154.856H155.36H155.863H156.367H156.871H157.375H157.879H158.383H158.887H159.391H159.895H160.399H160.902H161.406H161.91H162.414H162.918H163.422H163.925H164.429H164.933H165.437H165.94H166.444H166.948H167.451H167.955H168.458H168.962H169.465H169.968H170.472H170.975H171.478H171.981H172.484H172.987H173.49H173.993H174.496H174.998H175.501H176.004H176.506H177.009H177.511H178.013H178.515H179.017H179.519H180.021H180.523H181.025H181.526H182.028H182.529H183.03H183.531H184.032H184.533H185.034H185.535H186.035H186.536H187.036H187.536H188.036H188.536H189.036H189.535H190.035H190.534H191.033H191.532H192.031H192.53H193.028H193.527H194.025H194.523H195.021H195.519H196.016H196.514H197.011H197.508H198.005H198.502H198.998H199.495H199.991H200.487H200.983H201.478H201.974H202.469H202.964H203.458H203.953H204.447H204.942H205.436H205.929H206.423H206.916H207.409H207.902H208.395H208.887H209.379H209.871H210.363H210.854H211.345H211.836H212.327H212.818H213.308H213.798H214.288H214.777H215.266H215.755H216.244H216.732H217.22H217.708H218.196H218.683H219.17H219.657H220.144H220.63H221.116H221.601H222.087H222.572H223.057H223.541H224.025H224.509H224.993H225.476H225.959H226.441H226.924H227.406H227.888H228.369H228.85H229.331H229.811H230.291H230.771H231.25H231.729H232.208H232.686H233.164H233.642H234.12H234.597H235.073H235.549H236.025H236.501H236.976H237.451H237.926H238.4H238.873H239.347H239.82H240.292H240.765H241.236H241.708H242.179H242.65H243.12H243.59H244.059H244.529H244.997H245.466H245.934H246.401H246.868H247.335H247.801H248.267H248.732H249.197H249.662H250.126H250.59H251.053H251.516H251.979H252.441H252.902H253.363H253.824H254.284H254.744H255.203H255.662H256.121H256.578H257.036H257.493H257.95H258.406H258.861H259.317H259.771H260.225H260.679H261.133H261.585H262.038H262.489H262.941H263.392H263.842H264.292H264.741H265.19H265.638H266.086H266.533H266.98H267.426H267.872H268.318H268.762H269.206H269.65H270.093H270.536H270.978H271.42H271.861H272.301H272.741H273.181H273.619H274.058H274.496H274.933H275.37H275.806H276.241H276.676H277.111C280.778 11.3264 283.75 14.2998 283.75 17.9678V221.057C283.75 224.744 280.746 227.726 277.059 227.698L6.99973 225.691C3.35116 225.663 0.407712 222.698 0.407712 219.049V30.5929Z" stroke="white" stroke-opacity="0.8" stroke-width="0.5"/>
</g>
<defs>
<filter id="filter0_b_222_5660" x="-8.56003" y="-8.61423" width="301.174" height="245.177" filterUnits="userSpaceOnUse" color-interpolation-filters="sRGB">
<feFlood flood-opacity="0" result="BackgroundImageFix"/>
<feGaussianBlur in="BackgroundImageFix" stdDeviation="4.30712"/>
<feComposite in2="SourceAlpha" operator="in" result="effect1_backgroundBlur_222_5660"/>
<feBlend mode="normal" in="SourceGraphic" in2="effect1_backgroundBlur_222_5660" result="shape"/>
</filter>
<linearGradient id="paint0_linear_222_5660" x1="111.713" y1="7.30764" x2="112" y2="221.557" gradientUnits="userSpaceOnUse">
<stop offset="0.104372" stop-color="#0090FF"/>
<stop offset="1" stop-color="#0062D7"/>
</linearGradient>
</defs>
</svg>
