<svg width="48" height="48" viewBox="0 0 48 48" fill="none" xmlns="http://www.w3.org/2000/svg">
<path d="M0.5 12C0.5 5.64873 5.64873 0.5 12 0.5H36C42.3513 0.5 47.5 5.64873 47.5 12V36C47.5 42.3513 42.3513 47.5 36 47.5H12C5.64873 47.5 0.5 42.3513 0.5 36V12Z" fill="white"/>
<path d="M0.5 12C0.5 5.64873 5.64873 0.5 12 0.5H36C42.3513 0.5 47.5 5.64873 47.5 12V36C47.5 42.3513 42.3513 47.5 36 47.5H12C5.64873 47.5 0.5 42.3513 0.5 36V12Z" stroke="#278EFF"/>
<path d="M24 11.7059C24 9.6649 24.5 8 26 8C26.8 8 27.5698 8.67718 28 9.58824C28.5 10.6471 28.7783 11.881 28.5 12.7647C27.9545 14.4977 26.3334 14.8824 25.5 14.3529C24.9199 13.9844 24 13.2941 24 11.7059Z" stroke="#278EFF"/>
<path d="M29.5 11.1765C29.5 9.90588 30.5 9.05882 31.0001 9.05882C31.5001 9.05882 32.5001 9.90588 32.5001 11.1765C32.5001 12.7647 31.5001 13.2941 31.0001 13.2941C30.5 13.2941 29.5 12.7647 29.5 11.1765Z" stroke="#278EFF"/>
<path d="M39 14.8824C39.5 14.8824 40 15.4118 40 15.9412C40 16.4706 39.5 17 39 17C38.429 17 38 16.4706 38 15.9412C38 15.4118 38.5 14.8824 39 14.8824Z" stroke="#278EFF"/>
<path d="M17 15.5804C13 15.1804 10.6666 17.0804 9.99995 18.0804C9.49995 18.5804 8.59995 19.9803 8.99995 21.5803C9.49995 23.5803 12 28.0803 12.5 29.5803C12.9 30.7803 12.6666 33.747 12.5 35.0803C12.3333 35.9137 12.4 37.8803 14 39.0803C15.6 40.2803 18 39.5803 19 39.0803C19.5 38.747 20.6 37.4803 21 35.0803C21.5 32.0803 19.5 29.0803 19.5 26.0803C19.5 23.0803 21 22.0803 21.5 20.5803C22 19.0803 22 16.0804 17 15.5804Z" stroke="#278EFF"/>
<path d="M22.9999 12.0803C22.9999 10.1527 22.4999 8.58032 20.9999 8.58032C20.1999 8.58032 19.4301 9.21988 18.9999 10.0803C18.4999 11.0803 18.2217 12.2457 18.4999 13.0803C19.0455 14.717 20.6665 15.0803 21.4999 14.5803C22.08 14.2323 22.9999 13.5803 22.9999 12.0803Z" stroke="#278EFF"/>
<path d="M17.4999 11.5803C17.4999 10.3803 16.4999 9.58032 15.9999 9.58032C15.4999 9.58032 14.4999 10.3803 14.4999 11.5803C14.4999 13.0803 15.4999 13.5803 15.9999 13.5803C16.4999 13.5803 17.4999 13.0803 17.4999 11.5803Z" stroke="#278EFF"/>
<path d="M13.9999 12.5803C13.9999 11.3154 12.8169 11.0803 12.4999 11.0803C12.1829 11.0803 11.4999 11.5803 11.4999 12.5803C11.4999 14.2296 12.9999 14.0803 12.9999 14.0803C12.9999 14.0803 13.9999 14.0803 13.9999 12.5803Z" stroke="#278EFF"/>
<path d="M10.9999 13.5803C10.8219 13.2243 10.1211 12.7698 9.5 13.0803C8.77861 13.441 9 14.5803 9.5 15.0803C9.79958 15.3799 10.5 15.5803 11 15.0803C11.4999 14.5804 11.1781 13.9367 11 13.5806L10.9999 13.5803Z" stroke="#278EFF"/>
<path d="M8 15.0803C7.5 15.0803 7 15.5803 7 16.0803C7 16.5803 7.5 17.0803 8 17.0803C8.57094 17.0803 9 16.5803 9 16.0803C9 15.5803 8.5 15.0803 8 15.0803Z" stroke="#278EFF"/>
<path d="M29.6117 15.5804C33.6117 15.1804 35.9451 17.0804 36.6117 18.0804C37.1117 18.5804 38.0117 19.9803 37.6117 21.5803C37.1117 23.5803 34.6117 28.0803 34.1117 29.5803C33.7117 30.7803 33.9451 33.747 34.1117 35.0803C34.2784 35.9137 34.2117 37.8803 32.6117 39.0803C31.0117 40.2803 28.6117 39.5803 27.6117 39.0803C27.1117 38.747 26.0117 37.4803 25.6117 35.0803C25.1117 32.0803 27.1117 29.0803 27.1117 26.0803C27.1117 23.0803 25.6117 22.0803 25.1117 20.5803C24.6117 19.0803 24.6117 16.0804 29.6117 15.5804Z" stroke="#278EFF"/>
<path d="M25.3614 17.622C23.4804 18.0551 25.6442 24.0967 27.3341 23.2776C29.0943 22.4333 31.0845 20.0899 30.6433 18.8579C30.166 17.4516 27.219 17.1973 25.3614 17.622Z" fill="#FFA3A5"/>
<path d="M21.3105 17.622C23.1915 18.0551 21.0277 24.0967 19.3378 23.2776C17.5776 22.4333 15.5874 20.0899 16.0286 18.8579C16.5058 17.4516 19.4529 17.1973 21.3105 17.622Z" fill="#FFA3A5"/>
</svg>
