<svg width="48" height="48" viewBox="0 0 48 48" fill="none" xmlns="http://www.w3.org/2000/svg">
<path d="M0.5 12C0.5 5.64873 5.64873 0.5 12 0.5H36C42.3513 0.5 47.5 5.64873 47.5 12V36C47.5 42.3513 42.3513 47.5 36 47.5H12C5.64873 47.5 0.5 42.3513 0.5 36V12Z" fill="white"/>
<path d="M0.5 12C0.5 5.64873 5.64873 0.5 12 0.5H36C42.3513 0.5 47.5 5.64873 47.5 12V36C47.5 42.3513 42.3513 47.5 36 47.5H12C5.64873 47.5 0.5 42.3513 0.5 36V12Z" stroke="#278EFF"/>
<path fill-rule="evenodd" clip-rule="evenodd" d="M26 8.5C26.5206 8.5 27.1558 8.97143 27.5479 9.80174C28.0311 10.825 28.2438 11.9136 28.0231 12.6146C27.5582 14.0912 26.2757 14.2533 25.7681 13.9309C25.4956 13.7577 25.1841 13.5337 24.9373 13.1933C24.6967 12.8615 24.5 12.3946 24.5 11.7059C24.5 10.7114 24.6241 9.87154 24.8908 9.29858C25.0215 9.01773 25.177 8.82163 25.3493 8.69605C25.516 8.57449 25.7238 8.5 26 8.5ZM28.4522 9.37473C27.9838 8.38293 27.0795 7.5 26 7.5C25.5262 7.5 25.109 7.63363 24.7601 7.88802C24.4167 8.13838 24.166 8.48607 23.9842 8.87657C23.6259 9.6463 23.5 10.6594 23.5 11.7059C23.5 12.6054 23.7633 13.2778 24.1277 13.7803C24.4859 14.2743 24.9244 14.5796 25.2319 14.775C26.3911 15.5114 28.3507 14.9042 28.977 12.9149C29.06 12.651 29.1015 12.3679 29.1091 12.0748C29.4221 13.2714 30.3432 13.7941 31.0001 13.7941C31.4746 13.7941 32.0872 13.5213 32.5086 12.9185C32.5488 13.2755 32.7245 13.5983 32.949 13.836C33.2035 14.1054 33.577 14.3235 34 14.3235C34.39 14.3235 34.8759 14.1339 35.2606 13.808C35.289 13.784 35.317 13.7591 35.3445 13.7332C35.3249 13.8381 35.3103 13.9461 35.3026 14.0541C35.2782 14.3945 35.3112 14.8812 35.6365 15.2257C35.8887 15.4928 36.2518 15.6896 36.658 15.7193C36.9734 15.7423 37.2944 15.6626 37.5826 15.4664C37.5302 15.616 37.5 15.7759 37.5 15.9412C37.5 16.6958 38.1045 17.5 39 17.5C39.423 17.5 39.7965 17.2819 40.051 17.0124C40.3073 16.7411 40.5 16.3587 40.5 15.9412C40.5 15.5237 40.3073 15.1412 40.051 14.8699C39.7965 14.6004 39.423 14.3824 39 14.3824C38.7253 14.3824 38.4716 14.4743 38.2577 14.6126C38.3692 14.3549 38.4388 14.0738 38.4569 13.8014C38.4911 13.2875 38.3419 12.6447 37.7339 12.3228C37.2495 12.0664 36.7497 12.1384 36.3752 12.3104C36.2328 12.3758 36.0968 12.4607 35.9753 12.559C35.9914 12.4556 36 12.3477 36 12.2353C36 11.8178 35.8072 11.4353 35.551 11.164C35.2964 10.8946 34.9229 10.6765 34.5 10.6765L34.4891 10.6765C34.3201 10.6763 33.8305 10.6759 33.3763 10.9447C33.2385 11.0263 33.1115 11.1276 32.9994 11.2504C32.9998 11.226 33.0001 11.2013 33.0001 11.1765C33.0001 10.4063 32.6967 9.76581 32.3198 9.31885C32.1316 9.09566 31.9189 8.91313 31.7042 8.78324C31.499 8.65906 31.2515 8.55882 31.0001 8.55882C30.7486 8.55882 30.5011 8.65906 30.2959 8.78324C30.0812 8.91313 29.8685 9.09566 29.6803 9.31885C29.3321 9.73179 29.0467 10.3099 29.0052 11.0029C28.8899 10.4387 28.6892 9.87673 28.4522 9.37473ZM31.5553 9.9635C31.8034 10.2577 32.0001 10.676 32.0001 11.1765C32.0001 12.5159 31.1974 12.7941 31.0001 12.7941C30.8027 12.7941 30 12.5159 30 11.1765C30 10.676 30.1967 10.2577 30.4448 9.9635C30.5691 9.81611 30.7001 9.70746 30.8136 9.63882C30.9296 9.5686 30.9941 9.55966 30.9997 9.55889L31 9.55883C31.0001 9.55884 31.0002 9.55885 31.0004 9.55889C31.006 9.55966 31.0705 9.5686 31.1865 9.63882C31.3 9.70746 31.431 9.81611 31.5553 9.9635ZM31 9.55883C31 9.55883 31 9.55882 31.0001 9.55882C31.0001 9.55882 31.0001 9.55883 31 9.55883ZM33.8857 11.8053C34.0922 11.6831 34.3409 11.6765 34.5 11.6765C34.5769 11.6765 34.7034 11.7231 34.8239 11.8507C34.9427 11.9764 35 12.1234 35 12.2353C35 12.5904 34.8373 12.856 34.6143 13.0449C34.374 13.2485 34.1099 13.3235 34 13.3235C33.9229 13.3235 33.7965 13.2769 33.676 13.1493C33.5572 13.0236 33.5 12.8766 33.4999 12.7647C33.4999 12.1158 33.7276 11.8988 33.8857 11.8053ZM36.7925 13.2191C36.9682 13.1384 37.1293 13.1342 37.266 13.2066C37.3795 13.2667 37.4802 13.4179 37.4591 13.735C37.4382 14.0495 37.297 14.3691 37.1365 14.539C36.9868 14.6975 36.8454 14.7303 36.7308 14.7219C36.6001 14.7124 36.4631 14.6446 36.3635 14.539C36.3369 14.5109 36.2809 14.392 36.3 14.1257C36.3174 13.8831 36.3899 13.6395 36.4522 13.5076C36.4814 13.4459 36.6021 13.3066 36.7925 13.2191ZM39.324 15.5565C39.4427 15.6823 39.5 15.8293 39.5 15.9412C39.5 16.0531 39.4427 16.2001 39.324 16.3258C39.2035 16.4534 39.077 16.5 39 16.5C38.7535 16.5 38.5 16.2454 38.5 15.9412C38.5 15.8293 38.5572 15.6823 38.676 15.5565C38.7965 15.429 38.923 15.3824 39 15.3824C39.077 15.3824 39.2035 15.429 39.324 15.5565ZM20.9999 9.08032C20.4639 9.08032 19.8321 9.53386 19.4471 10.3039C19.214 10.7702 19.0368 11.2672 18.9495 11.7342C18.8614 12.206 18.8712 12.6133 18.9742 12.9222C19.4285 14.2851 20.7097 14.4713 21.2426 14.1516C21.5164 13.9873 21.8263 13.7762 22.0708 13.4578C22.3077 13.1492 22.4999 12.7178 22.4999 12.0803C22.4999 11.1447 22.3761 10.3606 22.1139 9.82852C21.9858 9.56866 21.8331 9.38604 21.6616 9.26794C21.4942 9.15267 21.2825 9.08032 20.9999 9.08032ZM18.5527 9.85672C19.0281 8.9059 19.9359 8.08032 20.9999 8.08032C21.4673 8.08032 21.8805 8.20452 22.2288 8.44432C22.5729 8.68129 22.8264 9.01224 23.0109 9.38643C23.3736 10.1224 23.4999 11.0884 23.4999 12.0803C23.4999 12.9428 23.2321 13.5874 22.864 14.0668C22.5035 14.5364 22.0635 14.8253 21.7571 15.0091C20.6233 15.6893 18.6624 15.149 18.0255 13.2384C17.9406 12.9838 17.8992 12.7133 17.8911 12.4375C17.5747 13.5931 16.6366 14.0803 15.9999 14.0803C15.5215 14.0803 14.8731 13.8054 14.446 13.1786C14.3427 13.7094 14.1002 14.0676 13.7999 14.2928C13.6106 14.4348 13.4209 14.5061 13.2774 14.542C13.2054 14.56 13.1433 14.5695 13.0961 14.5745C13.0724 14.5771 13.0522 14.5785 13.0361 14.5793L13.026 14.5798L13.0144 14.5806C12.997 14.5817 12.9739 14.5828 12.9459 14.5834C12.8902 14.5846 12.814 14.5837 12.7238 14.5761C12.5462 14.5613 12.2991 14.5193 12.0446 14.4047C11.9479 14.3612 11.8496 14.3068 11.7539 14.2395C11.8021 14.6171 11.7287 15.0588 11.3536 15.4339C10.9855 15.8019 10.5329 15.9148 10.1295 15.8781C9.87481 15.8549 9.63122 15.7718 9.42711 15.6502C9.47338 15.7857 9.5 15.9303 9.5 16.0803C9.5 16.8334 8.86964 17.5803 8 17.5803C7.58738 17.5803 7.21662 17.379 6.95895 17.1214C6.70127 16.8637 6.5 16.4929 6.5 16.0803C6.5 15.6677 6.70127 15.2969 6.95895 15.0393C7.21662 14.7816 7.58738 14.5803 8 14.5803C8.26379 14.5803 8.51048 14.6626 8.72145 14.7893C8.62257 14.5573 8.56042 14.3072 8.54322 14.0633C8.50759 13.558 8.66674 12.9379 9.27639 12.6331C9.75385 12.3944 10.2445 12.4609 10.6151 12.6216C10.7554 12.6825 10.8906 12.762 11.0124 12.8548C11.0041 12.7667 10.9999 12.6752 10.9999 12.5803C10.9999 11.9606 11.2135 11.472 11.4984 11.1334C11.6391 10.9662 11.7987 10.8338 11.9605 10.7407C12.1141 10.6524 12.3032 10.5803 12.4999 10.5803C12.7371 10.5803 13.2104 10.6581 13.6403 10.9361C13.7748 11.0231 13.9041 11.1295 14.0197 11.257C14.0938 10.6579 14.3666 10.1589 14.6894 9.79731C14.879 9.58495 15.0924 9.41229 15.3065 9.28995C15.5119 9.17256 15.7555 9.08032 15.9999 9.08032C16.2442 9.08032 16.4878 9.17256 16.6933 9.28995C16.9074 9.41229 17.1207 9.58495 17.3104 9.79731C17.6606 10.1895 17.9519 10.7435 17.9945 11.4115C18.1084 10.8821 18.3073 10.3474 18.5527 9.85672ZM12.9888 13.5803L12.9896 13.5802C12.9971 13.5794 13.0132 13.5772 13.0349 13.5718C13.0788 13.5608 13.1392 13.5383 13.1999 13.4928C13.2981 13.4191 13.4999 13.2083 13.4999 12.5803C13.4999 12.1374 13.3077 11.9119 13.0972 11.7758C12.8705 11.6292 12.612 11.5854 12.5159 11.5807C12.5076 11.5835 12.4886 11.5906 12.4593 11.6074C12.4039 11.6393 12.3333 11.6944 12.2636 11.7773C12.1278 11.9386 11.9999 12.2001 11.9999 12.5803C11.9999 12.9152 12.0752 13.1167 12.1544 13.2394C12.2335 13.362 12.3387 13.4404 12.4552 13.4929C12.5757 13.5471 12.7036 13.5709 12.8072 13.5796C12.8577 13.5838 12.8986 13.5842 12.925 13.5836C12.938 13.5834 12.9471 13.5829 12.9517 13.5826L12.9538 13.5824L12.9751 13.5803H12.9888ZM15.4354 10.4633C15.1897 10.7385 14.9999 11.124 14.9999 11.5803C14.9999 12.8042 15.776 13.0803 15.9999 13.0803C16.2237 13.0803 16.9999 12.8042 16.9999 11.5803C16.9999 11.124 16.8101 10.7385 16.5644 10.4633C16.4415 10.3257 16.3112 10.2234 16.1971 10.1582C16.1404 10.1258 16.092 10.105 16.0546 10.093C16.0197 10.0817 16.0019 10.0805 16 10.0803C15.9997 10.0803 15.9997 10.0803 15.9999 10.0803C16.0001 10.0803 16 10.0803 15.9998 10.0803C15.9979 10.0805 15.9801 10.0817 15.9452 10.093C15.9078 10.105 15.8594 10.1258 15.8026 10.1582C15.6886 10.2234 15.5582 10.3257 15.4354 10.4633ZM10.2171 13.5391C10.0376 13.4612 9.86728 13.4557 9.72361 13.5275C9.61188 13.5834 9.52103 13.7134 9.54074 13.9929C9.56077 14.2769 9.69671 14.5699 9.85355 14.7268C9.91693 14.7901 10.0562 14.8673 10.2202 14.8822C10.3669 14.8956 10.5145 14.8588 10.6464 14.7268C10.7589 14.6143 10.7824 14.501 10.7598 14.3506C10.733 14.1728 10.6462 13.9909 10.5527 13.8039C10.5281 13.7548 10.4116 13.6234 10.2171 13.5391ZM7.66605 15.7464C7.54873 15.8637 7.5 15.9929 7.5 16.0803C7.5 16.1677 7.54873 16.2969 7.66605 16.4143C7.78338 16.5316 7.91262 16.5803 8 16.5803C8.27225 16.5803 8.5 16.3273 8.5 16.0803C8.5 15.9929 8.45127 15.8637 8.33395 15.7464C8.21662 15.629 8.08738 15.5803 8 15.5803C7.91262 15.5803 7.78338 15.629 7.66605 15.7464ZM16.9502 16.0779C13.1334 15.6962 10.9796 17.5123 10.416 18.3577L10.3885 18.3989L10.3535 18.4339C9.91903 18.8684 9.14449 20.0969 9.48502 21.4591C9.71997 22.3988 10.4428 23.9726 11.2007 25.5515C11.332 25.8251 11.4646 26.0991 11.5952 26.3692C12.1968 27.6131 12.7581 28.7735 12.9743 29.4222C13.2059 30.117 13.2412 31.2431 13.2123 32.2941C13.1826 33.3714 13.081 34.4628 12.9961 35.1423L12.9938 35.1605L12.9902 35.1784C12.8432 35.9135 12.9162 37.6425 14.3 38.6803C14.9628 39.1775 15.8202 39.3012 16.6779 39.22C17.5145 39.1409 18.289 38.8716 18.746 38.6481C19.1266 38.3761 20.1322 37.2455 20.5068 34.9981C20.7359 33.6232 20.396 32.224 19.9575 30.7203C19.9095 30.5558 19.8602 30.3898 19.8105 30.2225C19.4177 28.8989 19 27.4915 19 26.0803C19 24.4833 19.4029 23.4024 19.8722 22.5308C20.0336 22.231 20.2081 21.9476 20.3669 21.6896L20.3669 21.6895C20.4303 21.5866 20.4912 21.4877 20.5478 21.3934C20.7538 21.0499 20.9184 20.744 21.0256 20.4222C21.251 19.746 21.3441 18.7815 20.8767 17.9505C20.4226 17.1432 19.3563 16.3185 16.9502 16.0779ZM9.61149 17.7624C10.4123 16.6027 12.9151 14.6694 17.0497 15.0829C19.6436 15.3423 21.0773 16.2675 21.7482 17.4602C22.4058 18.6292 22.2489 19.9146 21.9743 20.7384C21.8316 21.1667 21.6211 21.5482 21.4053 21.9079C21.3371 22.0214 21.2696 22.1312 21.2026 22.24L21.2024 22.2403L21.2023 22.2404C21.0496 22.4884 20.8997 22.7318 20.7527 23.0049C20.347 23.7582 20 24.6774 20 26.0803C20 27.3361 20.3725 28.5957 20.7701 29.9398C20.8191 30.1053 20.8684 30.2721 20.9175 30.4403C21.3539 31.9366 21.764 33.5375 21.4931 35.1625C21.0757 37.6673 19.9164 39.0703 19.2773 39.4963L19.2514 39.5136L19.2236 39.5275C18.6762 39.8012 17.7666 40.1215 16.772 40.2156C15.7797 40.3095 14.6371 40.1832 13.7 39.4803C11.8959 38.1273 11.8242 35.9434 12.0059 35.0012C12.0872 34.3461 12.1842 33.2969 12.2126 32.2665C12.242 31.2009 12.194 30.2436 12.0256 29.7384C11.832 29.1575 11.3114 28.0804 10.7103 26.8368L10.7103 26.8368L10.7102 26.8365C10.5763 26.5595 10.4384 26.2741 10.2992 25.9842C9.55707 24.4381 8.77994 22.7618 8.51488 21.7016C8.06473 19.901 9.03994 18.3561 9.61149 17.7624ZM36.1957 18.3577C35.6321 17.5123 33.4783 15.6962 29.6615 16.0779C27.2554 16.3185 26.1891 17.1432 25.735 17.9505C25.2676 18.7815 25.3607 19.746 25.5861 20.4222C25.6933 20.744 25.8579 21.0499 26.0639 21.3934C26.1205 21.4877 26.1814 21.5866 26.2448 21.6896C26.4036 21.9476 26.5781 22.231 26.7395 22.5308C27.2088 23.4024 27.6117 24.4833 27.6117 26.0803C27.6117 27.4915 27.194 28.8989 26.8012 30.2225L26.8012 30.2225C26.7515 30.3898 26.7022 30.5558 26.6542 30.7203C26.2157 32.224 25.8758 33.6232 26.1049 34.9981C26.4795 37.2455 27.4851 38.3761 27.8657 38.6481C28.3227 38.8716 29.0972 39.1409 29.9338 39.22C30.7915 39.3012 31.6489 39.1775 32.3117 38.6803C33.6955 37.6425 33.7685 35.9135 33.6215 35.1784L33.6179 35.1605L33.6156 35.1423C33.5307 34.4628 33.4291 33.3714 33.3994 32.2941C33.3705 31.2431 33.4058 30.117 33.6374 29.4222C33.8536 28.7735 34.4148 27.6132 35.0164 26.3693L35.0165 26.3692C35.1471 26.0991 35.2797 25.8251 35.411 25.5515C36.1689 23.9726 36.8917 22.3988 37.1267 21.4591C37.4672 20.0969 36.6927 18.8684 36.2582 18.4339L36.2232 18.3989L36.1957 18.3577ZM29.562 15.0829C33.6966 14.6694 36.1994 16.6027 37.0002 17.7624C37.5718 18.3561 38.547 19.901 38.0968 21.7016C37.8318 22.7618 37.0546 24.4381 36.3125 25.9842C36.1733 26.2742 36.0353 26.5597 35.9014 26.8368C35.3003 28.0804 34.7797 29.1575 34.5861 29.7384C34.4177 30.2436 34.3697 31.2009 34.3991 32.2665C34.4275 33.2969 34.5245 34.3461 34.6058 35.0012C34.7875 35.9434 34.7158 38.1273 32.9117 39.4803C31.9746 40.1832 30.832 40.3095 29.8397 40.2156C28.8451 40.1215 27.9355 39.8012 27.3881 39.5275L27.3603 39.5136L27.3344 39.4963C26.6953 39.0703 25.536 37.6673 25.1185 35.1625C24.8477 33.5375 25.2578 31.9366 25.6942 30.4403C25.7433 30.2722 25.7926 30.1055 25.8415 29.9401L25.8416 29.9398C26.2392 28.5957 26.6117 27.3361 26.6117 26.0803C26.6117 24.6774 26.2647 23.7582 25.859 23.0049C25.712 22.7318 25.5621 22.4884 25.4094 22.2404L25.4094 22.2404C25.3423 22.1314 25.2746 22.0216 25.2064 21.9079C24.9906 21.5482 24.7801 21.1667 24.6374 20.7384C24.3628 19.9146 24.2059 18.6292 24.8635 17.4602C25.5344 16.2675 26.9681 15.3423 29.562 15.0829Z" fill="#278EFF"/>
<path d="M25.3614 17.622C23.4804 18.0551 25.6442 24.0967 27.3341 23.2776C29.0943 22.4333 31.0845 20.0899 30.6433 18.8579C30.166 17.4516 27.219 17.1973 25.3614 17.622Z" fill="#FFA3A5"/>
<path d="M21.3105 17.622C23.1915 18.0551 21.0277 24.0967 19.3378 23.2776C17.5776 22.4333 15.5874 20.0899 16.0286 18.8579C16.5058 17.4516 19.4529 17.1973 21.3105 17.622Z" fill="#FFA3A5"/>
</svg>
