<svg width="48" height="48" viewBox="0 0 48 48" fill="none" xmlns="http://www.w3.org/2000/svg">
<path d="M0.5 12C0.5 5.64873 5.64873 0.5 12 0.5H36C42.3513 0.5 47.5 5.64873 47.5 12V36C47.5 42.3513 42.3513 47.5 36 47.5H12C5.64873 47.5 0.5 42.3513 0.5 36V12Z" fill="white"/>
<path d="M0.5 12C0.5 5.64873 5.64873 0.5 12 0.5H36C42.3513 0.5 47.5 5.64873 47.5 12V36C47.5 42.3513 42.3513 47.5 36 47.5H12C5.64873 47.5 0.5 42.3513 0.5 36V12Z" stroke="#278FFF"/>
<path d="M14 37H36.5" stroke="#FFA3A5" stroke-linecap="round"/>
<path d="M14.0807 24.5C13.6817 19.2999 13.5807 11.3333 13.5807 8H23.5808C22.9141 13 21.7808 23.5 22.5808 25.5C23.3808 27.5 29.9141 30.3333 33.0808 31.5C36.5808 33 37.0808 31.5 38.0808 32.5C39.0808 33.5 37.4141 35 36.5808 35H16.5C14.0807 35 12.6866 34 12.4995 32.5C11.9383 28 14.4024 28.6926 14.0807 24.5Z" stroke="#278EFF" stroke-linejoin="round"/>
<path d="M35.9629 38.8712H14.4356C13.9259 38.8712 13.5361 38.4814 13.5361 37.9717V37.3421C13.5361 36.8324 13.9259 36.4426 14.4356 36.4426H35.9629C36.4726 36.4426 36.8624 36.8324 36.8624 37.3421V37.9717C36.8924 38.4814 36.4726 38.8712 35.9629 38.8712Z" fill="#FFA3A5"/>
</svg>
