<svg width="48" height="48" viewBox="0 0 48 48" fill="none" xmlns="http://www.w3.org/2000/svg">
<path d="M0.5 12C0.5 5.64873 5.64873 0.5 12 0.5H36C42.3513 0.5 47.5 5.64873 47.5 12V36C47.5 42.3513 42.3513 47.5 36 47.5H12C5.64873 47.5 0.5 42.3513 0.5 36V12Z" stroke="#278FFF"/>
<g clip-path="url(#clip0_222_6079)">
<path d="M26.4625 35.5971C26.5251 37.187 25.3128 38.9599 23.5642 39.0289C21.7843 39.0991 20.5442 37.7878 20.4919 36.4629C20.4292 34.8729 21.5479 33.1037 23.3278 33.0336C25.0764 32.9646 26.4011 34.0403 26.4625 35.5971Z" fill="#FFA3A5"/>
<path d="M15.5171 11.8248C15.4412 9.89869 15.8789 8.30781 17.3777 8.24871C18.1771 8.21719 18.9714 8.82592 19.4352 9.66875C19.9742 10.6483 20.2982 11.8018 20.053 12.6467C19.5724 14.3037 17.9669 14.7305 17.1145 14.2637C16.5211 13.9388 15.5762 13.3236 15.5171 11.8248Z" stroke="#278EFF"/>
<path d="M20.9932 11.1085C20.9459 9.90942 21.9136 9.07064 22.4132 9.05094C22.9128 9.03124 23.9436 9.79123 23.9908 10.9903C24.0499 12.4891 23.0704 13.0281 22.5708 13.0478C22.0712 13.0675 21.0523 12.6073 20.9932 11.1085Z" stroke="#278EFF"/>
<path d="M30.6236 14.2315C31.1232 14.2118 31.6425 14.6917 31.6622 15.1913C31.6819 15.6909 31.202 16.2102 30.7024 16.2299C30.1319 16.2524 29.6834 15.7697 29.6637 15.2701C29.644 14.7705 30.1239 14.2512 30.6236 14.2315Z" stroke="#278EFF"/>
<path d="M22.2813 15.5613C26.2624 15.004 28.6688 16.8106 29.3744 17.7836C29.8937 18.2635 30.8481 19.6269 30.5115 21.2414C30.0907 23.2596 27.7699 27.8546 27.3294 29.3731C26.977 30.5879 27.327 33.5431 27.5461 34.8688C27.7454 35.6949 27.7563 37.6627 26.2048 38.9248C24.6534 40.1869 22.6353 40.0663 21.2087 39.1218C20.0584 38.1664 19.4078 37.1913 19.4406 35.1884C19.4905 32.1474 20.3151 29.1493 20.1969 26.1516C20.0787 23.1539 18.5405 22.2138 17.9818 20.7347C17.4231 19.2555 17.3049 16.2579 22.2813 15.5613Z" stroke="#278EFF"/>
</g>
<defs>
<clipPath id="clip0_222_6079">
<rect width="40" height="40" fill="white" transform="translate(4 4)"/>
</clipPath>
</defs>
</svg>
