<svg width="60" height="60" viewBox="0 0 60 60" fill="none" xmlns="http://www.w3.org/2000/svg">
<g clip-path="url(#clip0_222_5826)">
<rect width="60" height="60" rx="12" fill="#FFDFE0"/>
<g clip-path="url(#clip1_222_5826)">
<path d="M25.5 15C25.3674 15 25.2402 15.0527 25.1464 15.1464C25.0527 15.2402 25 15.3674 25 15.5V23.5C25 23.8978 24.842 24.2794 24.5607 24.5607C24.2794 24.842 23.8978 25 23.5 25H15.5C15.3674 25 15.2402 25.0527 15.1464 25.1464C15.0527 25.2402 15 25.3674 15 25.5V34.5C15 34.776 15.224 35 15.5 35H23.5C23.8978 35 24.2794 35.158 24.5607 35.4393C24.842 35.7206 25 36.1022 25 36.5V44.5C25 44.776 25.224 45 25.5 45H34.5C34.6326 45 34.7598 44.9473 34.8536 44.8536C34.9473 44.7598 35 44.6326 35 44.5V36.5C35 36.1022 35.158 35.7206 35.4393 35.4393C35.7206 35.158 36.1022 35 36.5 35H44.5C44.6326 35 44.7598 34.9473 44.8536 34.8536C44.9473 34.7598 45 34.6326 45 34.5V25.5C45 25.3674 44.9473 25.2402 44.8536 25.1464C44.7598 25.0527 44.6326 25 44.5 25H36.5C36.1022 25 35.7206 24.842 35.4393 24.5607C35.158 24.2794 35 23.8978 35 23.5V15.5C35 15.3674 34.9473 15.2402 34.8536 15.1464C34.7598 15.0527 34.6326 15 34.5 15H25.5ZM22 15.5C22 13.568 23.568 12 25.5 12H34.5C36.432 12 38 13.568 38 15.5V22H44.5C46.432 22 48 23.568 48 25.5V34.5C48 35.4283 47.6312 36.3185 46.9749 36.9749C46.3185 37.6313 45.4283 38 44.5 38H38V44.5C38 45.4283 37.6313 46.3185 36.9749 46.9749C36.3185 47.6312 35.4283 48 34.5 48H25.5C24.5717 48 23.6815 47.6312 23.0251 46.9749C22.3687 46.3185 22 45.4283 22 44.5V38H15.5C14.5717 38 13.6815 37.6313 13.0251 36.9749C12.3687 36.3185 12 35.4283 12 34.5V25.5C12 23.568 13.568 22 15.5 22H22V15.5Z" fill="#FF6168"/>
</g>
</g>
<defs>
<clipPath id="clip0_222_5826">
<rect width="60" height="60" rx="12" fill="white"/>
</clipPath>
<clipPath id="clip1_222_5826">
<rect width="36" height="36" fill="white" transform="translate(12 12)"/>
</clipPath>
</defs>
</svg>
