<svg width="21" height="20" viewBox="0 0 21 20" fill="none" xmlns="http://www.w3.org/2000/svg">
<path fill-rule="evenodd" clip-rule="evenodd" d="M2.90861 3.97723C3.17221 3.54078 4.62458 1.95326 5.66101 2.00118C5.97083 2.02686 6.2447 2.21428 6.46722 2.43165C6.97816 2.93059 8.4408 4.81763 8.52382 5.21473C8.7258 6.18863 7.56527 6.75004 7.92045 7.73165C8.82594 9.94732 10.3861 11.5075 12.6028 12.412C13.5836 12.7672 14.145 11.6067 15.119 11.8095C15.5152 11.8926 17.4032 13.3551 17.9022 13.866C18.1187 14.0877 18.307 14.3624 18.3327 14.6722C18.3712 15.7634 16.6852 17.2362 16.3565 17.4245C15.5811 17.979 14.5695 17.9696 13.3362 17.3962C9.89489 15.9645 4.39522 10.5686 2.93685 6.99737C2.37884 5.771 2.34033 4.75259 2.90861 3.97723Z" stroke="#FC3740" stroke-width="1.5" stroke-linecap="round" stroke-linejoin="round"/>
</svg>
