<svg width="48" height="48" viewBox="0 0 48 48" fill="none" xmlns="http://www.w3.org/2000/svg">
<path d="M0.5 12C0.5 5.64873 5.64873 0.5 12 0.5H36C42.3513 0.5 47.5 5.64873 47.5 12V36C47.5 42.3513 42.3513 47.5 36 47.5H12C5.64873 47.5 0.5 42.3513 0.5 36V12Z" stroke="#278FFF"/>
<g clip-path="url(#clip0_634_5863)">
<path d="M26.4625 35.5972C26.5251 37.1872 25.3128 38.9601 23.5642 39.029C21.7843 39.0992 20.5442 37.7879 20.4919 36.463C20.4292 34.8731 21.5479 33.1038 23.3278 33.0337C25.0764 32.9647 26.4011 34.0404 26.4625 35.5972Z" fill="#FFA3A5"/>
<path fill-rule="evenodd" clip-rule="evenodd" d="M18.9971 9.90987C18.582 9.15556 17.9329 8.72727 17.3973 8.74839C17.115 8.75952 16.9062 8.84015 16.7435 8.96193C16.5768 9.08669 16.4314 9.27519 16.3136 9.53989C16.0726 10.0819 15.9798 10.8702 16.0167 11.8052C16.0418 12.4421 16.2508 12.8657 16.4997 13.1647C16.7565 13.4732 17.0746 13.6719 17.3545 13.8253C17.8997 14.1238 19.1725 13.8872 19.5728 12.5075C19.6635 12.1947 19.6573 11.7874 19.5506 11.3194C19.4451 10.8562 19.2484 10.3666 18.9971 9.90987ZM17.3579 7.74916C18.4211 7.70724 19.3607 8.49641 19.8732 9.42776C20.1377 9.90843 20.3576 10.4348 20.4922 10.9593C20.5085 10.2902 20.7778 9.72519 21.1122 9.31946C21.2933 9.09979 21.4998 8.91885 21.7089 8.78818C21.9095 8.66279 22.1493 8.56102 22.3934 8.5514C22.6376 8.54177 22.8847 8.62434 23.0945 8.73354C23.3133 8.84735 23.5333 9.01147 23.7311 9.2162C24.1269 9.62576 24.4611 10.2276 24.4904 10.9707C24.4911 10.9877 24.4916 11.0047 24.492 11.0216C24.6063 10.8913 24.7346 10.7878 24.8672 10.7067C25.3071 10.4375 25.7906 10.4189 25.9584 10.4124L25.9694 10.412C26.3817 10.3957 26.7601 10.5822 27.0277 10.8295C27.2953 11.0768 27.5111 11.4394 27.5273 11.8517C27.5312 11.9486 27.5279 12.0423 27.5183 12.1327C27.6382 12.0325 27.7728 11.9456 27.9136 11.8778C28.2776 11.7026 28.7652 11.6168 29.2517 11.8365C29.8729 12.1171 30.0563 12.7304 30.0406 13.2367C30.033 13.4811 29.9808 13.7334 29.8911 13.9692C30.097 13.8343 30.3402 13.7423 30.6038 13.7319C31.0161 13.7157 31.3945 13.9022 31.6621 14.1495C31.9297 14.3968 32.1455 14.7594 32.1617 15.1717C32.178 15.584 31.9915 15.9624 31.7442 16.23C31.4968 16.4976 31.1343 16.7134 30.722 16.7296C29.853 16.7639 29.1937 16.0423 29.1641 15.2899C29.1584 15.1459 29.1774 15.006 29.2152 14.8735C28.5455 15.3435 27.7408 15.1368 27.2865 14.717C26.939 14.3959 26.8861 13.9215 26.8982 13.5915C26.9015 13.4995 26.9102 13.4073 26.9233 13.3171C26.8951 13.3443 26.8664 13.3704 26.8375 13.3955C26.464 13.7192 25.989 13.9139 25.6077 13.9289C25.1954 13.9452 24.817 13.7587 24.5494 13.5114C24.3169 13.2965 24.1236 12.9948 24.0662 12.6491C23.6627 13.2483 23.0523 13.5293 22.5904 13.5475C21.9542 13.5726 20.9977 13.1228 20.6359 11.9804C20.6387 12.2564 20.608 12.5283 20.5332 12.7861C19.9721 14.7203 18.034 15.3374 16.8742 14.7024C16.5609 14.5308 16.1098 14.2594 15.7311 13.8044C15.3444 13.3399 15.0514 12.7064 15.0175 11.8446C14.9784 10.8534 15.0665 9.88322 15.4 9.13349C15.5695 8.75232 15.8098 8.41163 16.1443 8.16129C16.4828 7.90796 16.8909 7.76758 17.3579 7.74916ZM23.4912 11.0101C23.4732 10.554 23.2684 10.1764 23.012 9.91109C22.8838 9.7784 22.7495 9.68128 22.633 9.62066C22.575 9.59051 22.5259 9.57166 22.488 9.5611C22.4527 9.55124 22.4349 9.55069 22.4329 9.55063L22.4329 9.55063C22.4327 9.55063 22.4327 9.55063 22.4328 9.55062C22.433 9.55061 22.433 9.55062 22.4328 9.55064L22.4328 9.55064C22.4308 9.55085 22.4131 9.5528 22.3787 9.56541C22.3418 9.57892 22.2942 9.60158 22.2388 9.6362C22.1274 9.70581 22.0012 9.8132 21.8838 9.95557C21.6492 10.2402 21.4747 10.6328 21.4927 11.0889C21.5409 12.3118 22.3273 12.5571 22.551 12.5483C22.7747 12.5395 23.5394 12.233 23.4912 11.0101ZM26.0088 11.4112C25.8488 11.4175 25.5948 11.4338 25.3892 11.5596C25.2963 11.6165 25.2133 11.6963 25.1522 11.8188C25.0897 11.9439 25.0368 12.1408 25.049 12.4497C25.0524 12.5371 25.1062 12.6643 25.2281 12.777C25.3499 12.8896 25.481 12.9332 25.5683 12.9297C25.6866 12.925 25.9511 12.8404 26.1825 12.6399C26.3985 12.4526 26.5405 12.205 26.5281 11.8911C26.5247 11.8038 26.4709 11.6766 26.349 11.564C26.2271 11.4513 26.0961 11.4077 26.0088 11.4112ZM28.8401 12.7479C28.6937 12.6818 28.5237 12.6939 28.3474 12.7788C28.1563 12.8708 28.0451 13.0067 28.0225 13.0567C27.9674 13.1789 27.9056 13.4054 27.8975 13.6279C27.8886 13.8722 27.9471 13.9658 27.9652 13.9825C28.066 14.0758 28.2076 14.1377 28.347 14.1418C28.4725 14.1455 28.6163 14.1041 28.7575 13.9513C28.908 13.7884 29.0323 13.4903 29.0411 13.2057C29.0498 12.9256 28.9539 12.7993 28.8401 12.7479ZM31.1625 15.2111C31.1591 15.1238 31.1053 14.9966 30.9834 14.8839C30.8616 14.7713 30.7305 14.7277 30.6432 14.7312C30.5559 14.7346 30.4287 14.7884 30.316 14.9103C30.2034 15.0321 30.1598 15.1632 30.1633 15.2505C30.173 15.4973 30.4106 15.7411 30.6826 15.7304C30.7699 15.727 30.8971 15.6732 31.0097 15.5513C31.1224 15.4295 31.1659 15.2984 31.1625 15.2111ZM28.9695 18.0772C28.373 17.2546 26.1493 15.5248 22.3506 16.0565C19.9559 16.3918 18.9229 17.2579 18.5009 18.0824C18.0666 18.9311 18.1976 19.8913 18.4495 20.558C18.5693 20.8753 18.7458 21.1746 18.9652 21.5096C19.0255 21.6017 19.0902 21.6981 19.1576 21.7985C19.3265 22.0501 19.5119 22.3263 19.685 22.6195C20.1884 23.472 20.6336 24.5362 20.6965 26.132C20.7574 27.6782 20.575 29.2155 20.3775 30.719C20.359 30.8601 20.3403 31.0009 20.3217 31.1414L20.3215 31.1422C20.1402 32.5105 19.9626 33.85 19.9405 35.1967C19.925 36.1416 20.0711 36.8027 20.3294 37.3269C20.5852 37.8461 20.9707 38.2715 21.5069 38.7196C22.7766 39.5477 24.5391 39.6353 25.8892 38.537C27.231 37.4455 27.2358 35.7149 27.06 34.9862L27.0557 34.9684L27.0527 34.9504C26.9411 34.2747 26.7966 33.1882 26.7245 32.1129C26.6541 31.0638 26.6451 29.9372 26.8491 29.2339C27.0396 28.5772 27.5547 27.3956 28.1068 26.1289L28.1068 26.1289L28.1074 26.1277C28.2271 25.853 28.3486 25.5744 28.4688 25.2962C29.1639 23.6887 29.8242 22.0877 30.022 21.1394C30.3086 19.7649 29.4862 18.5679 29.035 18.1509L28.9986 18.1173L28.9695 18.0772ZM22.2119 15.0662C26.327 14.4902 28.9041 16.3233 29.7499 17.4506C30.3444 18.0213 31.3798 19.5266 31.0009 21.3435C30.7778 22.4134 30.0673 24.119 29.3867 25.6931C29.2591 25.9883 29.1325 26.2788 29.0097 26.5609L29.0095 26.5613C28.4579 27.8275 27.9801 28.9243 27.8095 29.5125C27.6612 30.0239 27.6509 30.9823 27.7222 32.046C27.7912 33.0744 27.9295 34.119 28.0365 34.7704C28.2552 35.7046 28.2697 37.8897 26.5203 39.3127C24.7753 40.7322 22.5145 40.5861 20.9326 39.5388L20.91 39.5238L20.8892 39.5065C20.2862 39.0056 19.778 38.4702 19.4324 37.769C19.0861 37.0661 18.9233 36.2382 18.9406 35.1803C18.9637 33.7724 19.1492 32.375 19.3295 31.0158L19.3296 31.0155C19.3485 30.8728 19.3674 30.7305 19.386 30.5887C19.5837 29.0834 19.7545 27.6228 19.6973 26.1714C19.642 24.7695 19.259 23.8648 18.8239 23.128C18.6662 22.8609 18.5069 22.6236 18.3446 22.3818L18.3445 22.3818C18.2732 22.2755 18.2013 22.1684 18.1287 22.0575C17.8988 21.7066 17.6735 21.3337 17.514 20.9114C17.2071 20.0991 16.9997 18.8208 17.6107 17.6268C18.2341 16.4086 19.6302 15.4276 22.2119 15.0662Z" fill="#278EFF"/>
</g>
<defs>
<clipPath id="clip0_634_5863">
<rect width="40" height="40" fill="white" transform="translate(4 4)"/>
</clipPath>
</defs>
</svg>
