<svg width="42" height="39" viewBox="0 0 42 39" fill="none" xmlns="http://www.w3.org/2000/svg">
<path d="M37.4983 3.10279C30.8669 -2.10759 24.4724 1.72125 22.104 4.28697C19.3409 2.31332 14.6835 -1.63403 7.89391 0.734382C1.87274 2.83475 -2.54537 11.3919 1.65759 19.0891C8.44704 31.523 20.3278 38.036 20.9198 38.6281C21.3935 39.1017 24.6697 34.8782 26.2486 32.7072V27.3784H19.7357V17.3129H26.2486V10.7999H37.4983V17.3129H39.8667C41.8403 14.7472 44.1297 8.31317 37.4983 3.10279Z" fill="#4FA3FF"/>
<path d="M34.5381 14.3523H29.2093V19.6811H23.2884V25.0099H29.2093V30.3387H34.5381V25.0099H39.8667V19.6811H34.5381V14.3523Z" fill="#4FA3FF"/>
</svg>
