<svg width="60" height="60" viewBox="0 0 60 60" fill="none" xmlns="http://www.w3.org/2000/svg">
<rect width="60" height="60" rx="12" fill="#FFDFE0"/>
<path d="M13.5696 26.1402L14.564 26.0346C14.5614 26.0101 14.5579 25.9858 14.5535 25.9615L13.5696 26.1402ZM15.7084 44.1369L14.7166 44.2653C14.7771 44.7318 15.1545 45.0931 15.6232 45.1332L15.7084 44.1369ZM26.3935 26.8345L25.4169 26.6196C25.3973 26.7086 25.3899 26.7999 25.3951 26.8909L26.3935 26.8345ZM26.3961 26.8917L27.3938 26.9595C27.3961 26.9253 27.3967 26.8909 27.3955 26.8566L26.3961 26.8917ZM26.3961 35.1949L25.399 35.2708V35.2708L26.3961 35.1949ZM26.5855 44.8647L25.5935 44.7385C25.5921 44.7494 25.5909 44.7604 25.5899 44.7714L26.5855 44.8647ZM15.7129 44.1372L16.7122 44.1755C16.7326 43.6419 16.3302 43.1864 15.7981 43.1409L15.7129 44.1372ZM15.8209 26.6391L14.9229 27.079L14.9229 27.079L15.8209 26.6391ZM16.7559 24.4969L17.044 25.4545H17.044L16.7559 24.4969ZM18.6464 32.4073L19.5444 31.9674V31.9674L18.6464 32.4073ZM21.5152 32.084L22.4886 32.313H22.4886L21.5152 32.084ZM23.1904 24.9615L22.217 24.7326H22.217L23.1904 24.9615ZM21.2566 23.1427L21.5447 24.1003H21.5447L21.2566 23.1427ZM23.9907 18.697L23.783 17.7188L23.9907 18.697ZM16.3014 20.3298L16.0937 19.3516H16.0937L16.3014 20.3298ZM24.1512 17.7613L23.6294 18.6144L23.6294 18.6144L24.1512 17.7613ZM21.2649 15.9958L21.7867 15.1428L21.7867 15.1428L21.2649 15.9958ZM20.7032 16.0146L21.2808 16.8309L21.2808 16.8309L20.7032 16.0146ZM15.9002 19.4129L16.4777 20.2292H16.4777L15.9002 19.4129ZM12.5752 26.2457C12.9275 29.5651 14.0705 39.2745 14.7166 44.2653L16.7001 44.0084C16.0556 39.0311 14.9145 29.3371 14.564 26.0346L12.5752 26.2457ZM12.2383 22.3781C12.2383 23.7496 12.3597 25.0738 12.5857 26.3188L14.5535 25.9615C14.3494 24.837 14.2383 23.6324 14.2383 22.3781H12.2383ZM20.0512 9.20001C17.6453 9.20001 15.6738 10.932 14.361 13.2787C13.0301 15.6577 12.2383 18.8769 12.2383 22.3781H14.2383C14.2383 19.1535 14.9716 16.2836 16.1064 14.2551C17.2594 12.1942 18.6944 11.2 20.0512 11.2V9.20001ZM27.8641 22.3781C27.8641 18.8769 27.0723 15.6577 25.7414 13.2787C24.4286 10.932 22.457 9.20001 20.0512 9.20001V11.2C21.408 11.2 22.8429 12.1942 23.9959 14.2551C25.1308 16.2836 25.8641 19.1535 25.8641 22.3781H27.8641ZM27.3701 27.0495C27.6899 25.5964 27.8641 24.0209 27.8641 22.3781H25.8641C25.8641 23.8811 25.7046 25.3123 25.4169 26.6196L27.3701 27.0495ZM27.3955 26.8566C27.3946 26.8304 27.3934 26.8043 27.3919 26.7782L25.3951 26.8909C25.3958 26.9027 25.3963 26.9147 25.3967 26.9268L27.3955 26.8566ZM27.3932 35.119C27.1598 32.0515 27.2961 28.3967 27.3938 26.9595L25.3984 26.8239C25.2974 28.3106 25.1555 32.0705 25.399 35.2708L27.3932 35.119ZM27.5775 44.9909C27.662 44.3269 27.6831 42.7759 27.6534 40.9897C27.6231 39.1725 27.5382 37.0248 27.3932 35.119L25.399 35.2708C25.5404 37.1288 25.6239 39.2361 25.6537 41.023C25.6839 42.8408 25.6565 44.2428 25.5935 44.7385L27.5775 44.9909ZM21.1592 50.8C24.5166 50.8 27.274 48.2356 27.5811 44.958L25.5899 44.7714C25.3781 47.0309 23.4747 48.8 21.1592 48.8V50.8ZM14.7089 44.3497C14.7089 47.9121 17.5968 50.8 21.1592 50.8V48.8C18.7013 48.8 16.7089 46.8075 16.7089 44.3497H14.7089ZM14.7137 44.0989C14.7105 44.1822 14.7089 44.2658 14.7089 44.3497H16.7089C16.7089 44.2913 16.71 44.2333 16.7122 44.1755L14.7137 44.0989ZM15.6232 45.1332L15.6277 45.1336L15.7981 43.1409L15.7936 43.1405L15.6232 45.1332ZM16.719 26.1993C16.5743 25.9039 16.7291 25.5493 17.044 25.4545L16.4677 23.5394C14.9708 23.9898 14.2352 25.6752 14.9229 27.079L16.719 26.1993ZM19.5444 31.9674L16.719 26.1993L14.9229 27.079L17.7483 32.8472L19.5444 31.9674ZM20.5417 31.855C20.4271 32.3423 19.7646 32.417 19.5444 31.9674L17.7483 32.8472C18.795 34.9841 21.9438 34.6292 22.4886 32.313L20.5417 31.855ZM22.217 24.7326L20.5417 31.855L22.4886 32.313L24.1639 25.1905L22.217 24.7326ZM21.5447 24.1003C21.9375 23.9821 22.3109 24.3333 22.217 24.7326L24.1639 25.1905C24.6102 23.2928 22.8352 21.6234 20.9684 22.1851L21.5447 24.1003ZM17.044 25.4545L21.5447 24.1003L20.9684 22.1851L16.4677 23.5394L17.044 25.4545ZM21.0733 46.5413C22.9425 46.5413 24.4578 45.026 24.4578 43.1568H22.4578C22.4578 43.9214 21.838 44.5413 21.0733 44.5413V46.5413ZM17.6888 43.1568C17.6888 45.026 19.2041 46.5413 21.0733 46.5413V44.5413C20.3087 44.5413 19.6888 43.9214 19.6888 43.1568H17.6888ZM21.0733 39.7723C19.2041 39.7723 17.6888 41.2876 17.6888 43.1568H19.6888C19.6888 42.3921 20.3087 41.7723 21.0733 41.7723V39.7723ZM24.4578 43.1568C24.4578 41.2876 22.9425 39.7723 21.0733 39.7723V41.7723C21.838 41.7723 22.4578 42.3921 22.4578 43.1568H24.4578ZM23.783 17.7188L16.0937 19.3516L16.5091 21.308L24.1984 19.6752L23.783 17.7188ZM23.6294 18.6144C23.2522 18.3837 23.3505 17.8107 23.783 17.7188L24.1984 19.6752C25.5347 19.3915 25.8383 17.621 24.673 16.9082L23.6294 18.6144ZM20.7431 16.8489L23.6294 18.6144L24.673 16.9082L21.7867 15.1428L20.7431 16.8489ZM21.2808 16.8309C21.1212 16.9438 20.9098 16.9509 20.7431 16.8489L21.7867 15.1428C21.2717 14.8277 20.6185 14.8495 20.1256 15.1983L21.2808 16.8309ZM16.4777 20.2292L21.2808 16.8309L20.1256 15.1983L15.3226 18.5965L16.4777 20.2292ZM16.0937 19.3516C16.6135 19.2413 16.9115 19.9223 16.4777 20.2292L15.3226 18.5965C13.9824 19.5448 14.9032 21.649 16.5091 21.308L16.0937 19.3516Z" fill="#FF6168"/>
<path d="M46.4304 26.1402L45.436 26.0346C45.4386 26.0101 45.4421 25.9858 45.4465 25.9615L46.4304 26.1402ZM44.2916 44.1369L45.2834 44.2653C45.2229 44.7318 44.8455 45.0931 44.3768 45.1332L44.2916 44.1369ZM33.6065 26.8345L34.5831 26.6196C34.6027 26.7086 34.6101 26.7999 34.6049 26.8909L33.6065 26.8345ZM33.6039 26.8917L32.6062 26.9595C32.6039 26.9253 32.6033 26.8909 32.6045 26.8566L33.6039 26.8917ZM33.6039 35.1949L34.601 35.2708V35.2708L33.6039 35.1949ZM33.4145 44.8647L34.4065 44.7385C34.4079 44.7494 34.4091 44.7604 34.4101 44.7714L33.4145 44.8647ZM44.2871 44.1372L43.2878 44.1755C43.2674 43.6419 43.6698 43.1864 44.2019 43.1409L44.2871 44.1372ZM44.1791 26.6391L45.0771 27.079L45.0771 27.079L44.1791 26.6391ZM43.2441 24.4969L42.956 25.4545H42.956L43.2441 24.4969ZM41.3536 32.4073L40.4556 31.9674V31.9674L41.3536 32.4073ZM38.4848 32.084L37.5114 32.313H37.5114L38.4848 32.084ZM36.8096 24.9615L37.783 24.7326H37.783L36.8096 24.9615ZM38.7434 23.1427L38.4553 24.1003H38.4553L38.7434 23.1427ZM36.0093 18.697L36.217 17.7188L36.0093 18.697ZM43.6986 20.3298L43.9063 19.3516H43.9063L43.6986 20.3298ZM35.8488 17.7613L36.3706 18.6144L36.3706 18.6144L35.8488 17.7613ZM38.7351 15.9958L38.2133 15.1428L38.2133 15.1428L38.7351 15.9958ZM39.2968 16.0146L38.7192 16.8309L38.7192 16.8309L39.2968 16.0146ZM44.0998 19.4129L43.5223 20.2292H43.5223L44.0998 19.4129ZM47.4248 26.2457C47.0725 29.5651 45.9295 39.2745 45.2834 44.2653L43.2999 44.0084C43.9444 39.0311 45.0855 29.3371 45.436 26.0346L47.4248 26.2457ZM47.7617 22.3781C47.7617 23.7496 47.6403 25.0738 47.4143 26.3188L45.4465 25.9615C45.6506 24.837 45.7617 23.6324 45.7617 22.3781H47.7617ZM39.9488 9.20001C42.3547 9.20001 44.3262 10.932 45.639 13.2787C46.9699 15.6577 47.7617 18.8769 47.7617 22.3781H45.7617C45.7617 19.1535 45.0284 16.2836 43.8936 14.2551C42.7406 12.1942 41.3056 11.2 39.9488 11.2V9.20001ZM32.1359 22.3781C32.1359 18.8769 32.9277 15.6577 34.2586 13.2787C35.5714 10.932 37.543 9.20001 39.9488 9.20001V11.2C38.592 11.2 37.1571 12.1942 36.0041 14.2551C34.8692 16.2836 34.1359 19.1535 34.1359 22.3781H32.1359ZM32.6299 27.0495C32.3101 25.5964 32.1359 24.0209 32.1359 22.3781H34.1359C34.1359 23.8811 34.2954 25.3123 34.5831 26.6196L32.6299 27.0495ZM32.6045 26.8566C32.6054 26.8304 32.6066 26.8043 32.6081 26.7782L34.6049 26.8909C34.6042 26.9027 34.6037 26.9147 34.6033 26.9268L32.6045 26.8566ZM32.6068 35.119C32.8402 32.0515 32.7039 28.3967 32.6062 26.9595L34.6016 26.8239C34.7026 28.3106 34.8445 32.0705 34.601 35.2708L32.6068 35.119ZM32.4225 44.9909C32.338 44.3269 32.3169 42.7759 32.3466 40.9897C32.3769 39.1725 32.4618 37.0248 32.6068 35.119L34.601 35.2708C34.4596 37.1288 34.3761 39.2361 34.3463 41.023C34.3161 42.8408 34.3435 44.2428 34.4065 44.7385L32.4225 44.9909ZM38.8408 50.8C35.4834 50.8 32.726 48.2356 32.4189 44.958L34.4101 44.7714C34.6219 47.0309 36.5253 48.8 38.8408 48.8V50.8ZM45.2911 44.3497C45.2911 47.9121 42.4032 50.8 38.8408 50.8V48.8C41.2987 48.8 43.2911 46.8075 43.2911 44.3497H45.2911ZM45.2863 44.0989C45.2895 44.1822 45.2911 44.2658 45.2911 44.3497H43.2911C43.2911 44.2913 43.29 44.2333 43.2878 44.1755L45.2863 44.0989ZM44.3768 45.1332L44.3723 45.1336L44.2019 43.1409L44.2064 43.1405L44.3768 45.1332ZM43.281 26.1993C43.4257 25.9039 43.2709 25.5493 42.956 25.4545L43.5323 23.5394C45.0292 23.9898 45.7648 25.6752 45.0771 27.079L43.281 26.1993ZM40.4556 31.9674L43.281 26.1993L45.0771 27.079L42.2517 32.8472L40.4556 31.9674ZM39.4583 31.855C39.5729 32.3423 40.2354 32.417 40.4556 31.9674L42.2517 32.8472C41.205 34.9841 38.0562 34.6292 37.5114 32.313L39.4583 31.855ZM37.783 24.7326L39.4583 31.855L37.5114 32.313L35.8361 25.1905L37.783 24.7326ZM38.4553 24.1003C38.0625 23.9821 37.6891 24.3333 37.783 24.7326L35.8361 25.1905C35.3898 23.2928 37.1648 21.6234 39.0316 22.1851L38.4553 24.1003ZM42.956 25.4545L38.4553 24.1003L39.0316 22.1851L43.5323 23.5394L42.956 25.4545ZM38.9267 46.5413C37.0575 46.5413 35.5422 45.026 35.5422 43.1568H37.5422C37.5422 43.9214 38.162 44.5413 38.9267 44.5413V46.5413ZM42.3112 43.1568C42.3112 45.026 40.7959 46.5413 38.9267 46.5413V44.5413C39.6913 44.5413 40.3112 43.9214 40.3112 43.1568H42.3112ZM38.9267 39.7723C40.7959 39.7723 42.3112 41.2876 42.3112 43.1568H40.3112C40.3112 42.3921 39.6913 41.7723 38.9267 41.7723V39.7723ZM35.5422 43.1568C35.5422 41.2876 37.0575 39.7723 38.9267 39.7723V41.7723C38.162 41.7723 37.5422 42.3921 37.5422 43.1568H35.5422ZM36.217 17.7188L43.9063 19.3516L43.4909 21.308L35.8016 19.6752L36.217 17.7188ZM36.3706 18.6144C36.7478 18.3837 36.6495 17.8107 36.217 17.7188L35.8016 19.6752C34.4653 19.3915 34.1617 17.621 35.327 16.9082L36.3706 18.6144ZM39.2569 16.8489L36.3706 18.6144L35.327 16.9082L38.2133 15.1428L39.2569 16.8489ZM38.7192 16.8309C38.8788 16.9438 39.0902 16.9509 39.2569 16.8489L38.2133 15.1428C38.7283 14.8277 39.3815 14.8495 39.8744 15.1983L38.7192 16.8309ZM43.5223 20.2292L38.7192 16.8309L39.8744 15.1983L44.6774 18.5965L43.5223 20.2292ZM43.9063 19.3516C43.3865 19.2413 43.0885 19.9223 43.5223 20.2292L44.6774 18.5965C46.0176 19.5448 45.0968 21.649 43.4909 21.308L43.9063 19.3516Z" fill="#FF6168"/>
</svg>
