<svg width="48" height="49" viewBox="0 0 48 49" fill="none" xmlns="http://www.w3.org/2000/svg">
<path d="M0.78755 12.5344C0.78755 6.28492 5.85377 1.2187 12.1033 1.2187H36.0344C42.2839 1.2187 47.3501 6.28492 47.3501 12.5344V36.4656C47.3501 42.7151 42.2839 47.7813 36.0344 47.7813H12.1033C5.85377 47.7813 0.78755 42.7151 0.78755 36.4656V12.5344Z" fill="white"/>
<path d="M0.78755 12.5344C0.78755 6.28492 5.85377 1.2187 12.1033 1.2187H36.0344C42.2839 1.2187 47.3501 6.28492 47.3501 12.5344V36.4656C47.3501 42.7151 42.2839 47.7813 36.0344 47.7813H12.1033C5.85377 47.7813 0.78755 42.7151 0.78755 36.4656V12.5344Z" stroke="#278FFF" stroke-width="1.29971"/>
<path d="M29.061 24.0174C26.6231 23.7324 26.6231 31.806 28.9977 31.5527C31.4673 31.2994 34.855 29.3681 34.855 27.7217C34.8867 25.8537 31.4673 24.3023 29.061 24.0174Z" fill="#FFA3A5"/>
<path fill-rule="evenodd" clip-rule="evenodd" d="M19.5291 10.8432C19.913 10.0753 20.543 9.62311 21.0774 9.62311C21.3592 9.62311 21.5704 9.69525 21.7373 9.81018C21.9083 9.92795 22.0605 10.11 22.1882 10.3692C22.4497 10.8997 22.5731 11.6816 22.5731 12.6145C22.5731 13.2501 22.3815 13.6803 22.1453 13.988C21.9015 14.3056 21.5924 14.516 21.3195 14.6798C20.7881 14.9986 19.5106 14.8129 19.0576 13.454C18.9549 13.1459 18.9451 12.7399 19.033 12.2693C19.12 11.8037 19.2966 11.3081 19.5291 10.8432ZM21.0774 8.62598C20.0165 8.62598 19.1113 9.44919 18.6372 10.3973C18.3926 10.8866 18.1942 11.4197 18.0807 11.9476C18.0382 11.2815 17.7477 10.7292 17.3985 10.338C17.2094 10.1263 16.9966 9.95412 16.7832 9.83213C16.5783 9.71509 16.3354 9.62311 16.0918 9.62311C15.8481 9.62311 15.6052 9.71509 15.4004 9.83213C15.1869 9.95412 14.9741 10.1263 14.7851 10.338C14.4632 10.6986 14.1911 11.1962 14.1173 11.7935C14.002 11.6664 13.873 11.5603 13.7389 11.4736C13.3103 11.1964 12.8383 11.1188 12.6018 11.1188C12.4057 11.1188 12.2171 11.1906 12.064 11.2787C11.9026 11.3716 11.7435 11.5036 11.6032 11.6703C11.3191 12.0079 11.1061 12.4951 11.1061 13.1131C11.1061 13.2077 11.1103 13.2989 11.1186 13.3867C10.9972 13.2942 10.8623 13.215 10.7224 13.1543C10.3529 12.994 9.86366 12.9277 9.38757 13.1657C8.77966 13.4697 8.62097 14.0879 8.6565 14.5917C8.67365 14.835 8.73562 15.0843 8.83422 15.3157C8.62386 15.1894 8.37788 15.1073 8.11484 15.1073C7.70341 15.1073 7.3337 15.308 7.07677 15.565C6.81984 15.8219 6.61914 16.1916 6.61914 16.603C6.61914 17.0145 6.81984 17.3842 7.07677 17.6411C7.3337 17.898 7.70341 18.0987 8.11484 18.0987C8.98198 18.0987 9.61053 17.3539 9.61053 16.603C9.61053 16.4534 9.58399 16.3093 9.53785 16.1741C9.74138 16.2954 9.98427 16.3783 10.2382 16.4014C10.6405 16.438 11.0918 16.3254 11.4588 15.9584C11.8328 15.5844 11.906 15.144 11.8579 14.7675C11.9534 14.8346 12.0514 14.8888 12.1478 14.9322C12.4016 15.0465 12.648 15.0883 12.8251 15.1031C12.915 15.1107 12.991 15.1116 13.0466 15.1104C13.0744 15.1098 13.0975 15.1087 13.1149 15.1076L13.1264 15.1068L13.1365 15.1063C13.1526 15.1055 13.1727 15.1041 13.1963 15.1016C13.2434 15.0965 13.3053 15.087 13.3771 15.0691C13.5202 15.0333 13.7093 14.9622 13.8981 14.8207C14.1976 14.5961 14.4393 14.2389 14.5423 13.7096C14.9683 14.3346 15.6148 14.6088 16.0918 14.6088C16.7267 14.6088 17.662 14.123 17.9776 12.9706C17.9856 13.2457 18.027 13.5153 18.1116 13.7693C18.7467 15.6744 20.702 16.2132 21.8325 15.5348C22.138 15.3516 22.5767 15.0635 22.9362 14.5953C23.3032 14.1172 23.5703 13.4746 23.5703 12.6145C23.5703 11.6254 23.4444 10.6622 23.0826 9.92834C22.8988 9.55522 22.6459 9.22522 22.3028 8.98893C21.9556 8.74982 21.5435 8.62598 21.0774 8.62598ZM13.0901 14.1101L13.0893 14.1102H13.0756L13.0544 14.1123L13.0523 14.1125C13.0478 14.1127 13.0387 14.1132 13.0257 14.1135C12.9994 14.114 12.9586 14.1137 12.9083 14.1095C12.8049 14.1008 12.6774 14.0771 12.5572 14.023C12.4411 13.9707 12.3362 13.8925 12.2573 13.7702C12.1784 13.6479 12.1032 13.447 12.1032 13.1131C12.1032 12.7339 12.2308 12.4732 12.3662 12.3123C12.4357 12.2297 12.5061 12.1747 12.5613 12.143C12.5906 12.1261 12.6095 12.1191 12.6178 12.1164C12.7136 12.121 12.9714 12.1647 13.1974 12.3109C13.4073 12.4466 13.5989 12.6714 13.5989 13.1131C13.5989 13.7393 13.3978 13.9495 13.2998 14.0229C13.2393 14.0683 13.1791 14.0908 13.1353 14.1017C13.1136 14.1071 13.0976 14.1093 13.0901 14.1101ZM15.0946 12.1159C15.0946 11.6609 15.2839 11.2765 15.5289 11.0021C15.6514 10.8649 15.7814 10.7629 15.8951 10.6979C15.9517 10.6656 15.9999 10.6449 16.0372 10.6328C16.072 10.6216 16.0897 10.6204 16.0917 10.6203C16.0919 10.6202 16.0919 10.6202 16.0918 10.6202C16.0916 10.6202 16.0916 10.6202 16.0918 10.6203C16.0938 10.6204 16.1115 10.6216 16.1463 10.6328C16.1836 10.6449 16.2319 10.6656 16.2884 10.6979C16.4022 10.7629 16.5321 10.8649 16.6547 11.0021C16.8997 11.2765 17.0889 11.6609 17.0889 12.1159C17.0889 13.3363 16.315 13.6116 16.0918 13.6116C15.8686 13.6116 15.0946 13.3363 15.0946 12.1159ZM9.8335 14.0576C9.97676 13.9859 10.1466 13.9914 10.3256 14.069C10.5196 14.1532 10.6357 14.2842 10.6602 14.3332C10.7534 14.5196 10.84 14.7009 10.8667 14.8783C10.8892 15.0282 10.8658 15.1412 10.7537 15.2534C10.6221 15.385 10.4749 15.4217 10.3287 15.4084C10.1652 15.3935 10.0263 15.3166 9.96307 15.2534C9.80668 15.097 9.67113 14.8048 9.65116 14.5216C9.6315 14.2428 9.72209 14.1133 9.8335 14.0576ZM7.61627 16.603C7.61627 16.5159 7.66486 16.387 7.78185 16.27C7.89884 16.153 8.0277 16.1045 8.11484 16.1045C8.20197 16.1045 8.33084 16.153 8.44783 16.27C8.56482 16.387 8.6134 16.5159 8.6134 16.603C8.6134 16.8493 8.38631 17.1016 8.11484 17.1016C8.0277 17.1016 7.89884 17.053 7.78185 16.936C7.66486 16.819 7.61627 16.6902 7.61627 16.603ZM10.5239 18.8739C11.0859 18.0309 13.2335 16.22 17.0394 16.6006C19.4385 16.8405 20.5018 17.6629 20.9546 18.4678C21.4207 19.2964 21.3278 20.2582 21.1031 20.9325C20.9961 21.2533 20.8321 21.5584 20.6266 21.9009C20.5702 21.9949 20.5095 22.0935 20.4463 22.1962C20.2879 22.4535 20.114 22.736 19.953 23.035C19.485 23.9041 19.0832 24.9819 19.0832 26.5743C19.0832 27.9815 19.4998 29.3848 19.8915 30.7046C19.941 30.8715 19.9902 31.037 20.038 31.201C20.4753 32.7004 20.8142 34.0955 20.5857 35.4666C20.2122 37.7075 19.2095 38.8348 18.8301 39.1061C18.3743 39.3289 17.602 39.5975 16.7678 39.6764C15.9126 39.7573 15.0577 39.6339 14.3967 39.1382C13.0169 38.1034 12.9442 36.3793 13.0908 35.6463L13.0943 35.6284L13.0966 35.6104C13.1813 34.9328 13.2825 33.8445 13.3121 32.7703C13.341 31.7223 13.3058 30.5994 13.0749 29.9066C12.8593 29.2598 12.2996 28.1027 11.6997 26.8624L11.6996 26.8622C11.5694 26.5929 11.4373 26.3197 11.3064 26.047C10.5507 24.4726 9.82987 22.9034 9.5956 21.9663C9.25604 20.6081 10.0284 19.3831 10.4616 18.9499L10.4965 18.915L10.5239 18.8739ZM17.1386 15.6084C13.0159 15.1961 10.5202 17.1239 9.7217 18.2803C9.1518 18.8723 8.17938 20.4127 8.62824 22.2082C8.89254 23.2654 9.66744 24.9368 10.4074 26.4785C10.5462 26.7677 10.6838 27.0522 10.8173 27.3286L10.8174 27.3287L10.8174 27.3287C11.4167 28.5687 11.9358 29.6426 12.1289 30.222C12.2968 30.7257 12.3447 31.6803 12.3154 32.7428C12.2871 33.7702 12.1904 34.8165 12.1093 35.4696C11.9281 36.4091 11.9996 38.5867 13.7984 39.9359C14.7329 40.6367 15.8723 40.7627 16.8617 40.6691C17.8535 40.5753 18.7604 40.2559 19.3062 39.983L19.334 39.9691L19.3598 39.9519C19.9971 39.527 21.153 38.1281 21.5693 35.6305C21.8393 34.0101 21.4304 32.4138 20.9952 30.9218C20.9464 30.7543 20.8972 30.5881 20.8484 30.4232L20.8483 30.4228C20.4519 29.0825 20.0804 27.8265 20.0804 26.5743C20.0804 25.1754 20.4264 24.2589 20.8309 23.5077C20.9776 23.2354 21.127 22.9927 21.2793 22.7455C21.3462 22.6368 21.4136 22.5272 21.4816 22.4139C21.6968 22.0552 21.9067 21.6748 22.049 21.2478C22.3229 20.4263 22.4793 19.1446 21.8236 17.979C21.1546 16.7897 19.7251 15.8671 17.1386 15.6084ZM27.0453 18.2196C27.132 17.8731 27.9696 16.6031 31.0487 16.6031C34.157 16.6031 36.304 17.5777 37.1776 18.4513C37.7551 19.0288 38.249 19.7927 38.4662 20.8221C38.6841 21.8547 38.6311 23.1906 38.0542 24.921C37.8846 25.4299 37.7335 25.9621 37.5861 26.4813C37.5141 26.7347 37.4431 26.985 37.3712 27.228C37.1473 27.9843 36.9079 28.6982 36.5856 29.3428C36.2982 29.9175 36.1172 30.2418 35.9843 30.4799L35.9842 30.4799L35.984 30.4803C35.9613 30.5211 35.9399 30.5594 35.9196 30.596C35.7722 30.8622 35.6799 31.0469 35.5614 31.4023C35.3097 32.1575 35.1619 32.7209 35.1619 33.305C35.1619 33.8891 35.3097 34.4524 35.5614 35.2076C35.9689 36.4299 35.5547 38.6934 33.3564 39.5727C32.467 39.9285 31.5712 39.9308 30.8349 39.7835C30.0758 39.6317 29.5599 39.3374 29.407 39.1845C29.0694 38.8469 28.7646 38.5354 28.5788 38.0964C28.3999 37.6734 28.313 37.0803 28.541 36.168C28.9161 34.6678 30.062 33.9101 31.2064 33.5287C32.8249 32.9892 35.1106 31.9712 35.9987 29.7509C36.8816 27.5438 35.992 25.3747 35.4832 24.3571C35.2939 23.9786 34.4729 22.554 32.6654 22.1021C32.114 21.9643 31.6038 21.9318 31.1352 21.9237C30.965 21.9208 30.807 21.9209 30.6556 21.9209C30.3721 21.921 30.1118 21.9211 29.8378 21.9016C29.0694 21.8467 28.3146 21.6395 27.4128 20.7376C27.0404 20.3652 26.599 19.5633 27.0346 18.2564L27.0407 18.2382L27.0453 18.2196ZM31.0487 15.6059C27.7685 15.6059 26.343 16.9761 26.0831 17.9578C25.5309 19.6335 26.085 20.82 26.7077 21.4427C27.8 22.535 28.7902 22.8264 29.7668 22.8962C30.0749 22.9182 30.398 22.9183 30.7038 22.9184H30.7038C30.8467 22.9184 30.9859 22.9184 31.118 22.9207C31.5532 22.9282 31.9777 22.958 32.4235 23.0695C33.8068 23.4153 34.4482 24.5168 34.5913 24.803C35.0797 25.7797 35.7855 27.5991 35.0729 29.3806C34.3656 31.1488 32.4921 32.049 30.8911 32.5827C29.5747 33.0215 28.0638 33.9655 27.5737 35.9262C27.3032 37.0081 27.3824 37.8276 27.6605 38.4849C27.9271 39.115 28.3595 39.5473 28.6849 39.8725L28.7019 39.8896C29.0476 40.2353 29.7781 40.5891 30.6394 40.7613C31.5234 40.9381 32.6218 40.9405 33.7267 40.4985C36.5141 39.3836 37.0459 36.5079 36.5074 34.8923C36.2605 34.1518 36.159 33.718 36.159 33.305C36.159 32.892 36.2605 32.4581 36.5074 31.7177C36.6014 31.4356 36.6652 31.308 36.792 31.0789L36.8551 30.9657C36.989 30.7258 37.1796 30.3844 37.4775 29.7887C37.84 29.0636 38.0991 28.2818 38.3273 27.5109C38.4061 27.2446 38.4805 26.9825 38.554 26.7236L38.554 26.7233C38.6975 26.2178 38.8374 25.7246 39.0002 25.2363C39.62 23.377 39.7039 21.8585 39.4419 20.6163C39.1791 19.371 38.5762 18.4397 37.8826 17.7462C36.7619 16.6255 34.3221 15.6059 31.0487 15.6059ZM28.7298 10.979C28.387 10.2533 27.7812 9.79 27.2313 9.76411C26.9435 9.75056 26.7251 9.8101 26.5522 9.91098C26.3764 10.0135 26.2192 10.1754 26.0834 10.4075C25.8042 10.8846 25.6473 11.6039 25.6062 12.4768C25.5533 13.5999 26.2323 14.1153 26.7572 14.4451C27.2989 14.7856 28.5842 14.6397 29.0846 13.4134C29.196 13.1404 29.2244 12.7703 29.1583 12.3297C29.0929 11.894 28.9401 11.4243 28.7298 10.979ZM27.2782 8.76808C28.3219 8.81723 29.1931 9.62524 29.6314 10.5531C29.8563 11.0293 30.033 11.5464 30.1237 12.0558C30.1977 11.4165 30.5196 10.9028 30.8875 10.5499C31.0872 10.3584 31.3079 10.2064 31.5256 10.1022C31.7353 10.0018 31.9779 9.92889 32.2142 9.94002C32.4505 9.95114 32.6852 10.0466 32.8845 10.1662C33.0915 10.2904 33.2969 10.4624 33.4777 10.6718C33.8387 11.0902 34.1282 11.6913 34.0945 12.4067L34.0932 12.4338C34.2219 12.3155 34.3623 12.2265 34.5036 12.1604C34.9585 11.9477 35.4346 11.9705 35.6009 11.9785L35.6119 11.979C36.0125 11.9979 36.3699 12.1993 36.6178 12.4557C36.8639 12.7101 37.0576 13.0775 37.0384 13.4848C37.0345 13.5663 37.0255 13.6447 37.0117 13.7203C37.1417 13.6342 37.285 13.5629 37.4314 13.511C37.8034 13.3792 38.2857 13.3409 38.7436 13.5833C39.3376 13.8977 39.4802 14.4995 39.4196 14.9944C39.3934 15.2088 39.3287 15.425 39.2333 15.6262C39.4455 15.521 39.6874 15.4592 39.9396 15.4711C40.3402 15.49 40.6976 15.6914 40.9455 15.9477C41.1916 16.2022 41.3852 16.5696 41.3661 16.9769C41.3469 17.3842 41.1195 17.7318 40.8507 17.962C40.5798 18.194 40.205 18.3609 39.8044 18.342C38.9664 18.3026 38.3427 17.5857 38.378 16.8362C38.3838 16.7127 38.4087 16.5946 38.4482 16.4836C37.752 16.8605 36.985 16.6045 36.5696 16.175C36.2421 15.8363 36.228 15.3708 36.2687 15.0541C36.2783 14.9791 36.2919 14.9044 36.3087 14.8311C36.2765 14.8558 36.244 14.8793 36.2113 14.9016C35.8125 15.1734 35.3284 15.3127 34.9567 15.2952C34.556 15.2763 34.1986 15.0749 33.9507 14.8186C33.7389 14.5995 33.5659 14.2967 33.5341 13.9568C33.0769 14.4973 32.4374 14.7068 31.9907 14.6858C31.3786 14.657 30.4467 14.163 30.1802 13.0373C30.1591 13.2977 30.1049 13.5521 30.0078 13.7902C29.2768 15.5814 27.3008 15.9645 26.2266 15.2894C25.6266 14.9123 24.5306 14.1191 24.6101 12.4299C24.6541 11.4958 24.8235 10.5863 25.2228 9.9039C25.4262 9.55631 25.6963 9.25581 26.0498 9.04964C26.4061 8.84185 26.8189 8.74645 27.2782 8.76808ZM33.0985 12.3598C33.1178 11.9503 32.9534 11.5905 32.7228 11.3233C32.6078 11.19 32.483 11.0881 32.3714 11.0212C32.316 10.9879 32.2677 10.9656 32.2294 10.952C32.2105 10.9453 32.1954 10.9412 32.1843 10.9388C32.1788 10.9376 32.1746 10.9369 32.1717 10.9365C32.1687 10.9361 32.1673 10.936 32.1673 10.936C32.1673 10.936 32.1659 10.936 32.1629 10.9361C32.1599 10.9362 32.1557 10.9365 32.1501 10.9372C32.1388 10.9385 32.1234 10.9412 32.104 10.9461C32.0646 10.956 32.0144 10.9737 31.9561 11.0016C31.8388 11.0578 31.7049 11.1475 31.5779 11.2694C31.3232 11.5138 31.1257 11.8565 31.1064 12.266C31.0545 13.3691 31.7858 13.6779 32.0376 13.6898C32.2895 13.7016 33.0466 13.4629 33.0985 12.3598ZM35.565 12.9751C35.4046 12.9675 35.1451 12.9612 34.9258 13.0637C34.8267 13.1101 34.7406 13.177 34.6738 13.2801C34.606 13.3846 34.5394 13.5551 34.5262 13.8362C34.5233 13.8977 34.5566 14.0107 34.6676 14.1254C34.7766 14.2382 34.9062 14.2946 35.0036 14.2992C35.1299 14.3051 35.4038 14.2452 35.6496 14.0777C35.8812 13.9198 36.0296 13.7087 36.0424 13.4379C36.0452 13.3765 36.012 13.2635 35.9011 13.1488C35.792 13.036 35.6624 12.9796 35.565 12.9751ZM38.2771 14.4645C38.13 14.3867 37.9508 14.3848 37.7644 14.4509C37.5622 14.5225 37.4445 14.6407 37.4232 14.6766C37.361 14.7814 37.2833 14.9815 37.2577 15.1809C37.2297 15.3993 37.279 15.4742 37.2864 15.4818C37.4807 15.6827 37.8214 15.7568 38.0978 15.5201C38.2575 15.3834 38.3992 15.124 38.4299 14.8733C38.459 14.635 38.3858 14.5221 38.2771 14.4645ZM40.37 16.93C40.3729 16.8686 40.3396 16.7556 40.2287 16.6409C40.1197 16.5281 39.9901 16.4717 39.8927 16.4671C39.7953 16.4626 39.661 16.5065 39.5418 16.6086C39.4206 16.7123 39.3769 16.8217 39.374 16.8831C39.3651 17.0711 39.5519 17.3319 39.8513 17.346C39.9487 17.3506 40.083 17.3066 40.2022 17.2046C40.3234 17.1008 40.3671 16.9914 40.37 16.93Z" fill="#278EFF"/>
</svg>
