<svg width="34" height="50" viewBox="0 0 34 50" fill="none" xmlns="http://www.w3.org/2000/svg">
<path d="M20.2573 5.3288C24.2058 4.45136 29.1386 0 29.1386 0L33.7754 6.51298C33.7754 6.51298 27.5425 8.50202 24.8939 13.026C23.6357 15.1751 24.7319 18.8268 23.1177 20.7231C22.1579 21.8505 20.4313 22.5021 19.0731 23.0915C14.1031 25.2481 9.49961 11.2497 9.49961 11.2497C9.49961 11.2497 8.54652 9.90821 9.0076 8.28924C9.55243 6.37624 11.1114 5.06017 13.0521 4.73671C16.6047 4.14462 17.5487 5.93072 20.2573 5.3288Z" fill="#4FA3FF"/>
<path d="M14.3364 23.0915C11.7707 19.5389 7.13153 11.8418 6.04716 12.4339C5.25771 12.8286 3.32355 14.0917 1.90254 15.9864C0.481525 17.8811 0.0267434 22.4994 0.618556 23.0915C1.21037 23.6835 16.9021 26.644 14.3364 23.0915Z" fill="#4FA3FF"/>
<path d="M14.3364 49.1434H6.63916H4.8631C4.8631 49.1434 5.84995 42.433 4.8631 40.262C3.87624 38.091 1.11044 36.1174 0.618472 31.9728C0.313752 29.4057 0.718362 27.2361 3.67872 26.0519C6.047 25.1046 9.00754 26.4466 10.1918 27.2361C10.9812 26.8414 12.9153 26.0519 14.3364 26.0519C16.1128 26.0519 17.8889 26.644 19.0731 29.6044C20.9678 34.3411 15.6204 37.8937 14.3364 40.262C13.0524 42.6304 14.3364 49.1434 14.3364 49.1434Z" fill="#4FA3FF"/>
</svg>
