<svg width="60" height="60" viewBox="0 0 60 60" fill="none" xmlns="http://www.w3.org/2000/svg">
<g clip-path="url(#clip0_222_5832)">
<rect width="60" height="60" rx="12" fill="#FFDFE0"/>
<path d="M34.3062 32.8135C36.3267 33.4515 38.0824 34.3669 39.6108 35.6712C43.0684 38.6194 44.86 42.3658 44.9991 46.8868C45.0215 47.599 44.6342 48.0322 44.0584 47.9981C43.526 47.967 43.2254 47.5812 43.2119 46.8972C43.1656 44.7116 42.6242 42.6566 41.5534 40.7441C38.8316 35.8804 33.4254 33.2808 27.8083 34.1295C22.5067 34.9308 18.2057 39.0007 17.0706 44.3407C16.8911 45.1849 16.8612 46.0633 16.7984 46.9298C16.7505 47.5901 16.4499 47.9877 15.9131 47.9981C15.3552 48.01 15.0083 47.596 15.0008 46.9076C14.9335 40.6343 19.1314 34.9337 25.3048 32.9129C25.4259 32.8728 25.5456 32.8283 25.731 32.7615C25.5411 32.625 25.3975 32.5241 25.257 32.4203C23.1214 30.8549 21.9788 28.7584 21.9504 26.1218C21.916 22.7907 21.9354 19.4582 21.9444 16.1258C21.9504 13.7473 23.6822 12.0187 26.0675 12.0084C28.6981 11.998 31.3287 11.9965 33.9578 12.0084C36.3132 12.0187 38.0525 13.7443 38.0599 16.0887C38.0719 19.3648 38.0599 22.6409 38.0644 25.9185C38.0689 28.7332 36.9323 30.9603 34.6068 32.5835C34.5336 32.6354 34.4633 32.6918 34.3047 32.812L34.3062 32.8135ZM36.2384 20.9361H23.7345C23.7345 22.6216 23.751 24.2671 23.73 25.9125C23.7031 28.1337 24.6647 29.8385 26.4743 31.079C30.3162 33.7111 35.6656 31.4321 36.201 26.8518C36.4269 24.9184 36.2384 22.9362 36.2384 20.9361ZM36.2728 19.0947C36.2728 18.1051 36.2728 17.1629 36.2728 16.2222C36.2728 16.0738 36.2773 15.9254 36.2609 15.7786C36.1442 14.685 35.2424 13.8067 34.1283 13.7978C31.3855 13.774 28.6428 13.7755 25.9 13.7963C24.8023 13.8037 23.8452 14.6287 23.7689 15.7044C23.6897 16.8216 23.751 17.9493 23.751 19.0962L36.2728 19.0947Z" fill="#FF6168" stroke="#FF6168" stroke-width="0.75"/>
</g>
<defs>
<clipPath id="clip0_222_5832">
<rect width="60" height="60" rx="12" fill="white"/>
</clipPath>
</defs>
</svg>
