<svg width="48" height="48" viewBox="0 0 48 48" fill="none" xmlns="http://www.w3.org/2000/svg">
<path d="M0.5 12C0.5 5.64873 5.64873 0.5 12 0.5H36C42.3513 0.5 47.5 5.64873 47.5 12V36C47.5 42.3513 42.3513 47.5 36 47.5H12C5.64873 47.5 0.5 42.3513 0.5 36V12Z" stroke="#278FFF"/>
<g clip-path="url(#clip0_222_6079)">
<path d="M26.4625 35.5971C26.5251 37.187 25.3128 38.9599 23.5642 39.0289C21.7843 39.0991 20.5442 37.7878 20.4919 36.4629C20.4292 34.8729 21.5479 33.1037 23.3278 33.0336C25.0764 32.9646 26.4011 34.0403 26.4625 35.5971Z" fill="#FFA3A5"/>
<path fill-rule="evenodd" clip-rule="evenodd" d="M18.9971 9.90974C18.582 9.15544 17.9329 8.72715 17.3973 8.74826C17.115 8.7594 16.9062 8.84003 16.7435 8.9618C16.5768 9.08657 16.4314 9.27506 16.3136 9.53977C16.0726 10.0818 15.9798 10.8701 16.0167 11.805C16.0418 12.442 16.2508 12.8655 16.4997 13.1646C16.7565 13.4731 17.0746 13.6718 17.3545 13.8251C17.8997 14.1236 19.1725 13.8871 19.5728 12.5074C19.6635 12.1946 19.6573 11.7873 19.5506 11.3193C19.4451 10.8561 19.2484 10.3665 18.9971 9.90974ZM17.3579 7.74904C18.4211 7.70712 19.3607 8.49629 19.8732 9.42764C20.1377 9.90831 20.3576 10.4347 20.4922 10.9592C20.5085 10.2901 20.7778 9.72506 21.1122 9.31934C21.2933 9.09967 21.4998 8.91873 21.7089 8.78806C21.9095 8.66267 22.1493 8.5609 22.3934 8.55127C22.6376 8.54165 22.8847 8.62422 23.0945 8.73342C23.3133 8.84723 23.5333 9.01135 23.7311 9.21608C24.1269 9.62563 24.4611 10.2275 24.4904 10.9705C24.4911 10.9876 24.4916 11.0046 24.492 11.0214C24.6063 10.8912 24.7346 10.7877 24.8672 10.7066C25.3071 10.4374 25.7906 10.4187 25.9584 10.4123L25.9694 10.4118C26.3817 10.3956 26.7601 10.5821 27.0277 10.8294C27.2953 11.0767 27.5111 11.4393 27.5273 11.8516C27.5312 11.9485 27.5279 12.0422 27.5183 12.1325C27.6382 12.0324 27.7728 11.9455 27.9136 11.8777C28.2776 11.7025 28.7652 11.6167 29.2517 11.8364C29.8729 12.117 30.0563 12.7303 30.0406 13.2366C30.033 13.481 29.9808 13.7333 29.8911 13.969C30.097 13.8341 30.3402 13.7422 30.6038 13.7318C31.0161 13.7156 31.3945 13.9021 31.6621 14.1494C31.9297 14.3967 32.1455 14.7593 32.1617 15.1716C32.178 15.5839 31.9915 15.9623 31.7442 16.2299C31.4968 16.4975 31.1343 16.7132 30.722 16.7295C29.853 16.7638 29.1937 16.0422 29.1641 15.2898C29.1584 15.1457 29.1774 15.0059 29.2152 14.8734C28.5455 15.3434 27.7408 15.1367 27.2865 14.7168C26.939 14.3958 26.8861 13.9214 26.8982 13.5914C26.9015 13.4994 26.9102 13.4072 26.9233 13.317C26.8951 13.3441 26.8664 13.3703 26.8375 13.3954C26.464 13.7191 25.989 13.9138 25.6077 13.9288C25.1954 13.9451 24.817 13.7586 24.5494 13.5112C24.3169 13.2964 24.1236 12.9947 24.0662 12.649C23.6627 13.2482 23.0523 13.5292 22.5904 13.5474C21.9542 13.5725 20.9977 13.1226 20.6359 11.9803C20.6387 12.2563 20.608 12.5281 20.5332 12.786C19.9721 14.7202 18.034 15.3373 16.8742 14.7022C16.5609 14.5306 16.1098 14.2593 15.7311 13.8043C15.3444 13.3398 15.0514 12.7063 15.0175 11.8444C14.9784 10.8532 15.0665 9.8831 15.4 9.13336C15.5695 8.7522 15.8098 8.41151 16.1443 8.16117C16.4828 7.90784 16.8909 7.76745 17.3579 7.74904ZM23.4912 11.0099C23.4732 10.5539 23.2684 10.1762 23.012 9.91097C22.8838 9.77828 22.7495 9.68116 22.633 9.62054C22.575 9.59038 22.5259 9.57154 22.488 9.56097C22.4527 9.55112 22.4349 9.55057 22.4329 9.55051L22.4329 9.55051C22.4327 9.5505 22.4327 9.5505 22.4328 9.5505C22.433 9.55049 22.433 9.55049 22.4328 9.55052L22.4328 9.55052C22.4308 9.55073 22.4131 9.55268 22.3787 9.56529C22.3418 9.5788 22.2942 9.60146 22.2388 9.63608C22.1274 9.70569 22.0012 9.81308 21.8838 9.95545C21.6492 10.2401 21.4747 10.6327 21.4927 11.0887C21.5409 12.3116 22.3273 12.557 22.551 12.5482C22.7747 12.5393 23.5394 12.2328 23.4912 11.0099ZM26.0088 11.4111C25.8488 11.4174 25.5948 11.4337 25.3892 11.5595C25.2963 11.6164 25.2133 11.6962 25.1522 11.8186C25.0897 11.9438 25.0368 12.1407 25.049 12.4496C25.0524 12.537 25.1062 12.6642 25.2281 12.7768C25.3499 12.8894 25.481 12.933 25.5683 12.9296C25.6866 12.9249 25.9511 12.8403 26.1825 12.6397C26.3985 12.4525 26.5405 12.2049 26.5281 11.891C26.5247 11.8037 26.4709 11.6765 26.349 11.5638C26.2271 11.4512 26.0961 11.4076 26.0088 11.4111ZM28.8401 12.7478C28.6937 12.6816 28.5237 12.6938 28.3474 12.7787C28.1563 12.8707 28.0451 13.0066 28.0225 13.0566C27.9674 13.1787 27.9056 13.4053 27.8975 13.6278C27.8886 13.8721 27.9471 13.9657 27.9652 13.9824C28.066 14.0756 28.2076 14.1376 28.347 14.1417C28.4725 14.1454 28.6163 14.1039 28.7575 13.9512C28.908 13.7883 29.0323 13.4902 29.0411 13.2056C29.0498 12.9255 28.9539 12.7992 28.8401 12.7478ZM31.1625 15.211C31.1591 15.1236 31.1053 14.9964 30.9834 14.8838C30.8616 14.7712 30.7305 14.7276 30.6432 14.731C30.5559 14.7345 30.4287 14.7883 30.316 14.9101C30.2034 15.032 30.1598 15.163 30.1633 15.2504C30.173 15.4971 30.4106 15.741 30.6826 15.7303C30.7699 15.7268 30.8971 15.673 31.0097 15.5512C31.1224 15.4293 31.1659 15.2983 31.1625 15.211ZM28.9695 18.077C28.373 17.2545 26.1493 15.5247 22.3506 16.0564C19.9559 16.3916 18.9229 17.2577 18.5009 18.0823C18.0666 18.931 18.1976 19.8911 18.4495 20.5579C18.5693 20.8752 18.7458 21.1745 18.9652 21.5095C19.0255 21.6015 19.0902 21.698 19.1576 21.7984C19.3265 22.0499 19.5119 22.3262 19.685 22.6194C20.1884 23.4719 20.6336 24.536 20.6965 26.1318C20.7574 27.678 20.575 29.2154 20.3775 30.7188C20.359 30.86 20.3403 31.0008 20.3217 31.1412L20.3215 31.1421C20.1402 32.5104 19.9626 33.8499 19.9405 35.1966C19.925 36.1415 20.0711 36.8025 20.3294 37.3268C20.5852 37.8459 20.9707 38.2714 21.5069 38.7195C22.7766 39.5476 24.5391 39.6352 25.8892 38.5369C27.231 37.4454 27.2358 35.7148 27.06 34.9861L27.0557 34.9683L27.0527 34.9503C26.9411 34.2746 26.7966 33.1881 26.7245 32.1128C26.6541 31.0637 26.6451 29.9371 26.8491 29.2337C27.0396 28.5771 27.5547 27.3955 28.1068 26.1288L28.1068 26.1288L28.1074 26.1276C28.2271 25.8529 28.3486 25.5743 28.4688 25.2961C29.1639 23.6886 29.8242 22.0876 30.022 21.1393C30.3086 19.7648 29.4862 18.5677 29.035 18.1507L28.9986 18.1171L28.9695 18.077ZM22.2119 15.0661C26.327 14.49 28.9041 16.3232 29.7499 17.4505C30.3444 18.0212 31.3798 19.5265 31.0009 21.3434C30.7778 22.4133 30.0673 24.1189 29.3867 25.693C29.2591 25.9881 29.1325 26.2786 29.0097 26.5607L29.0095 26.5612C28.4579 27.8274 27.9801 28.9242 27.8095 29.5123C27.6612 30.0238 27.6509 30.9822 27.7222 32.0459C27.7912 33.0742 27.9295 34.1189 28.0365 34.7702C28.2552 35.7045 28.2697 37.8896 26.5203 39.3126C24.7753 40.7321 22.5145 40.586 20.9326 39.5387L20.91 39.5237L20.8892 39.5064C20.2862 39.0055 19.778 38.4701 19.4324 37.7688C19.0861 37.066 18.9233 36.2381 18.9406 35.1801C18.9637 33.7723 19.1492 32.3749 19.3295 31.0157L19.3296 31.0154C19.3485 30.8727 19.3674 30.7304 19.386 30.5886C19.5837 29.0833 19.7545 27.6227 19.6973 26.1712C19.642 24.7694 19.259 23.8646 18.8239 23.1278C18.6662 22.8607 18.5069 22.6235 18.3446 22.3817L18.3445 22.3816C18.2732 22.2754 18.2013 22.1683 18.1287 22.0574C17.8988 21.7065 17.6735 21.3336 17.514 20.9113C17.2071 20.0989 16.9997 18.8207 17.6107 17.6267C18.2341 16.4085 19.6302 15.4275 22.2119 15.0661Z" fill="#278EFF"/>
</g>
<defs>
<clipPath id="clip0_222_6079">
<rect width="40" height="40" fill="white" transform="translate(4 4)"/>
</clipPath>
</defs>
</svg>
