<svg width="48" height="48" viewBox="0 0 48 48" fill="none" xmlns="http://www.w3.org/2000/svg">
<path d="M0.5 12C0.5 5.64873 5.64873 0.5 12 0.5H36C42.3513 0.5 47.5 5.64873 47.5 12V36C47.5 42.3513 42.3513 47.5 36 47.5H12C5.64873 47.5 0.5 42.3513 0.5 36V12Z" stroke="#278EFF"/>
<path d="M26.5352 35.6681C26.6077 37.2577 25.4064 39.0381 23.6583 39.1179C21.8789 39.1991 20.6306 37.8956 20.5701 36.571C20.4976 34.9815 21.6052 33.2054 23.3846 33.1241C25.1328 33.0443 26.4641 34.1118 26.5352 35.6681Z" fill="#FFA3A5"/>
<path d="M15.4425 11.9644C15.3546 10.0388 15.7824 8.44523 17.2808 8.37682C18.08 8.34033 18.8781 8.94411 19.3471 9.78404C19.8922 10.7602 20.2233 11.9116 19.9834 12.7581C19.5131 14.418 17.9103 14.8548 17.055 14.3934C16.4596 14.0722 15.5109 13.4628 15.4425 11.9644Z" stroke="#278EFF" stroke-width="0.75"/>
<path d="M20.914 11.2141C20.8593 10.0153 21.8217 9.17053 22.3212 9.14773C22.8207 9.12492 23.8561 9.87848 23.9109 11.0772C23.9793 12.5757 23.0031 13.1208 22.5036 13.1436C22.0042 13.1664 20.9824 12.7125 20.914 11.2141Z" stroke="#278EFF" stroke-width="0.75"/>
<path d="M30.5636 14.2771C31.0631 14.2543 31.5854 14.731 31.6082 15.2305C31.631 15.73 31.1543 16.2522 30.6548 16.275C30.0845 16.3011 29.6331 15.8212 29.6103 15.3217C29.5875 14.8222 30.0641 14.2999 30.5636 14.2771Z" stroke="#278EFF" stroke-width="0.75"/>
<path d="M22.2296 15.6587C26.2072 15.0767 28.6248 16.8683 29.3363 17.8369C29.8586 18.3135 30.8215 19.671 30.4949 21.2876C30.0867 23.3083 27.7945 27.9176 27.3635 29.4389C27.0186 30.6559 27.387 33.6088 27.6143 34.9331C27.8188 35.758 27.8419 37.7257 26.2983 38.9974C24.7547 40.2691 22.7359 40.1611 21.3035 39.2254C20.1473 38.2772 19.4906 37.3061 19.511 35.3031C19.542 32.2619 20.3479 29.2587 20.2111 26.2618C20.0743 23.2649 18.5302 22.3344 17.9623 20.8587C17.3944 19.3831 17.2576 16.3863 22.2296 15.6587Z" stroke="#278EFF" stroke-width="0.75"/>
</svg>
