<svg width="48" height="48" viewBox="0 0 48 48" fill="none" xmlns="http://www.w3.org/2000/svg">
<path d="M0.5 12C0.5 5.64873 5.64873 0.5 12 0.5H36C42.3513 0.5 47.5 5.64873 47.5 12V36C47.5 42.3513 42.3513 47.5 36 47.5H12C5.64873 47.5 0.5 42.3513 0.5 36V12Z" fill="white"/>
<path d="M0.5 12C0.5 5.64873 5.64873 0.5 12 0.5H36C42.3513 0.5 47.5 5.64873 47.5 12V36C47.5 42.3513 42.3513 47.5 36 47.5H12C5.64873 47.5 0.5 42.3513 0.5 36V12Z" stroke="#278FFF"/>
<path d="M21.1391 21.4249C21.1391 22.6948 18.1408 22.8711 17.3296 22.342C17.1532 22.2362 17.0474 21.9893 17.0474 21.7777C17.2943 22.5184 18.4936 22.2362 19.1285 22.2362C19.5165 22.2009 19.9045 22.1657 20.2572 22.0598C20.61 21.954 21.0333 21.8129 21.1391 21.4249Z" fill="#278EFF"/>
<path d="M17.9293 31.9011C18.1057 32.6771 17.9999 33.559 17.6824 34.2997C17.5413 34.5466 17.4002 34.7935 17.1886 34.9699H17.1533C17.2239 34.4055 17.4355 33.947 17.6119 33.4532C17.7882 32.9593 17.8941 32.4302 17.9293 31.9011Z" fill="#278EFF"/>
<path d="M20.0101 35.4284C19.5163 34.7935 19.2341 33.9469 19.1636 33.1356C19.1636 32.8534 19.1988 32.5713 19.3047 32.3243H19.3399C19.5163 32.8534 19.5516 33.3473 19.5869 33.9116C19.6574 34.4055 19.7632 34.9346 20.0101 35.4284Z" fill="#278EFF"/>
<path d="M29.0049 35.5343C29.1813 36.3103 29.0754 37.1921 28.758 37.9329C28.6522 38.2151 28.5111 38.4267 28.2994 38.6384H28.2642C28.3347 38.074 28.5463 37.6154 28.7227 37.1216C28.8991 36.5925 29.0049 36.0634 29.0049 35.5343Z" fill="#278EFF"/>
<path d="M31.1215 39.0616C30.6276 38.4267 30.3454 37.5801 30.2749 36.7688C30.2749 36.4866 30.3102 36.2044 30.416 35.9575H30.4513C30.6276 36.4866 30.6629 36.9804 30.6982 37.5448C30.7335 38.0739 30.8746 38.5677 31.1215 39.0616Z" fill="#278EFF"/>
<path d="M31.1921 22.9064C31.0863 23.7882 29.9928 23.894 29.3226 23.894C28.7582 23.894 28.088 23.8587 27.7 23.4002C27.5589 23.2591 27.4884 23.0827 27.4531 22.8711C27.8764 23.5413 28.6524 23.506 29.3579 23.506C29.9928 23.5413 30.8394 23.6118 31.1921 22.9064Z" fill="#278EFF"/>
<path d="M21.3507 41.4955H15.3542C15.072 41.4955 14.8604 41.2839 14.8604 41.0017V39.4849C14.8604 39.2027 15.072 38.9911 15.3542 38.9911H21.3507C21.6328 38.9911 21.8445 39.2027 21.8445 39.4849V41.0017C21.8445 41.2839 21.5976 41.4955 21.3507 41.4955Z" fill="#FFA3A5"/>
<path d="M15.5 16.5C15.5 15.3 14.6667 10.1667 14 7C14 6.6 14.6667 6.5 15 6.5H22C22.3333 6.5 23.1 6.6 23.5 7C24 7.5 24 14.5 23 16.5C22.2 18.1 22 19.5 22 20V21.5C22 22.5 22.5 24.5 22 26.5C21.5 28.5 21.5 28 21 29.5C20.6 30.7 20.8333 32.3333 21 33C21.1667 33.6667 21.6 35.3 22 36.5C22.4 37.7 21.5 38.3333 21 38.5H16C15.5 38.5 15 37.5 15 36.5C15 35.5 16 34 16.5 33C17 32 16.5 31.5 15.5 29C14.5 26.5 15.5 22.5 16 21.5C16.5 20.5 15.5 18 15.5 16.5Z" stroke="#278EFF"/>
<path d="M32.1683 19.2188C32.1683 17.9438 33.8516 8.94469 33.9999 8.5C34.5 7 33.3892 7 33.084 7H26.674C26.3688 7 25.4999 7 25.3005 7.53125C25.054 8.18785 25.0843 15.375 26 17.5C26.7326 19.2 26.674 20.8125 26.674 21.3438V22.9375C26.674 24 26.2162 26.125 26.674 28.25C27.1319 30.375 27.1319 29.8438 27.5897 31.4375C27.956 32.7125 28.1526 34.2917 28 35C27.8474 35.7083 26.674 37.5 26.674 38.875C26.674 40.2016 27.1319 40.8229 27.5897 41H32.1683C32.6261 41 33.084 39.9375 33.084 38.875C33.084 37.8125 32.1683 36.2188 31.7104 35.1562C31.2526 34.0938 31.7104 33.5625 32.6261 30.9062C33.5419 28.25 32.6261 24 32.1683 22.9375C31.7104 21.875 32.1683 20.8125 32.1683 19.2188Z" stroke="#278EFF"/>
</svg>
