<svg width="60" height="60" viewBox="0 0 60 60" fill="none" xmlns="http://www.w3.org/2000/svg">
<g clip-path="url(#clip0_222_5773)">
<rect width="60" height="60" rx="12" fill="#FFDFE0"/>
<path d="M20.0252 26.1401L21.0196 26.0346C21.017 26.0101 21.0135 25.9857 21.0091 25.9615L20.0252 26.1401ZM22.1639 44.1368L21.1722 44.2652C21.2326 44.7318 21.61 45.0931 22.0788 45.1332L22.1639 44.1368ZM32.8491 26.8345L31.8724 26.6196C31.8528 26.7086 31.8455 26.7998 31.8506 26.8908L32.8491 26.8345ZM32.8517 26.8917L33.8494 26.9595C33.8517 26.9252 33.8523 26.8909 33.8511 26.8566L32.8517 26.8917ZM32.8517 35.1949L31.8546 35.2708V35.2708L32.8517 35.1949ZM33.0411 44.8646L32.0491 44.7384C32.0477 44.7494 32.0465 44.7603 32.0454 44.7713L33.0411 44.8646ZM22.1685 44.1372L23.1678 44.1755C23.1882 43.6419 22.7858 43.1863 22.2537 43.1408L22.1685 44.1372ZM22.2765 26.6391L21.3784 27.079L21.3784 27.079L22.2765 26.6391ZM23.2114 24.4969L23.4996 25.4545H23.4996L23.2114 24.4969ZM25.1019 32.4073L26 31.9674V31.9674L25.1019 32.4073ZM27.9707 32.084L28.9442 32.3129H28.9442L27.9707 32.084ZM29.646 24.9615L28.6726 24.7325H28.6726L29.646 24.9615ZM27.7121 23.1426L28.0003 24.1002H28.0003L27.7121 23.1426ZM30.4463 18.697L30.2386 17.7188L30.4463 18.697ZM22.757 20.3298L22.5493 19.3516H22.5493L22.757 20.3298ZM30.6068 17.7613L30.085 18.6143L30.085 18.6143L30.6068 17.7613ZM27.7205 15.9958L28.2423 15.1427L28.2423 15.1427L27.7205 15.9958ZM27.1587 16.0146L27.7363 16.8309L27.7363 16.8309L27.1587 16.0146ZM22.3557 19.4128L22.9333 20.2292H22.9333L22.3557 19.4128ZM19.0307 26.2457C19.383 29.5651 20.526 39.2745 21.1722 44.2652L23.1557 44.0084C22.5112 39.0311 21.3701 29.337 21.0196 26.0346L19.0307 26.2457ZM18.6938 22.378C18.6938 23.7495 18.8152 25.0737 19.0412 26.3187L21.0091 25.9615C20.8049 24.837 20.6938 23.6324 20.6938 22.378H18.6938ZM26.5068 9.19998C24.1009 9.19998 22.1294 10.932 20.8166 13.2786C19.4856 15.6577 18.6938 18.8768 18.6938 22.378H20.6938C20.6938 19.1535 21.4272 16.2836 22.562 14.2551C23.715 12.1941 25.1499 11.2 26.5068 11.2V9.19998ZM34.3197 22.378C34.3197 18.8768 33.5279 15.6577 32.1969 13.2786C30.8841 10.932 28.9126 9.19998 26.5068 9.19998V11.2C27.8636 11.2 29.2985 12.1941 30.4515 14.2551C31.5863 16.2836 32.3197 19.1535 32.3197 22.378H34.3197ZM33.8257 27.0494C34.1455 25.5964 34.3197 24.0209 34.3197 22.378H32.3197C32.3197 23.8811 32.1602 25.3122 31.8724 26.6196L33.8257 27.0494ZM33.8511 26.8566C33.8501 26.8304 33.8489 26.8043 33.8475 26.7782L31.8506 26.8908C31.8513 26.9027 31.8519 26.9147 31.8523 26.9267L33.8511 26.8566ZM33.8488 35.119C33.6154 32.0515 33.7517 28.3967 33.8494 26.9595L31.854 26.8239C31.7529 28.3105 31.6111 32.0704 31.8546 35.2708L33.8488 35.119ZM34.0331 44.9908C34.1175 44.3268 34.1387 42.7759 34.1089 40.9897C34.0787 39.1725 33.9938 37.0247 33.8488 35.119L31.8546 35.2708C31.9959 37.1288 32.0795 39.2361 32.1092 41.0229C32.1395 42.8407 32.1121 44.2428 32.0491 44.7384L34.0331 44.9908ZM27.6147 50.8C30.9722 50.8 33.7295 48.2356 34.0367 44.9579L32.0454 44.7713C31.8337 47.0309 29.9302 48.8 27.6147 48.8V50.8ZM21.1644 44.3497C21.1644 47.9121 24.0523 50.8 27.6147 50.8V48.8C25.1569 48.8 23.1644 46.8075 23.1644 44.3497H21.1644ZM21.1692 44.0989C21.166 44.1822 21.1644 44.2658 21.1644 44.3497H23.1644C23.1644 44.2913 23.1655 44.2332 23.1678 44.1755L21.1692 44.0989ZM22.0788 45.1332L22.0833 45.1336L22.2537 43.1408L22.2491 43.1405L22.0788 45.1332ZM23.1745 26.1992C23.0299 25.9039 23.1846 25.5493 23.4996 25.4545L22.9233 23.5393C21.4264 23.9897 20.6908 25.6752 21.3784 27.079L23.1745 26.1992ZM26 31.9674L23.1745 26.1992L21.3784 27.079L24.2039 32.8472L26 31.9674ZM26.9973 31.855C26.8827 32.3423 26.2202 32.417 26 31.9674L24.2039 32.8472C25.2506 34.984 28.3994 34.6291 28.9442 32.3129L26.9973 31.855ZM28.6726 24.7325L26.9973 31.855L28.9442 32.3129L30.6194 25.1905L28.6726 24.7325ZM28.0003 24.1002C28.393 23.982 28.7665 24.3333 28.6726 24.7325L30.6194 25.1905C31.0658 23.2928 29.2908 21.6233 27.424 22.1851L28.0003 24.1002ZM23.4996 25.4545L28.0003 24.1002L27.424 22.1851L22.9233 23.5393L23.4996 25.4545ZM27.5289 46.5413C29.3981 46.5413 30.9134 45.026 30.9134 43.1568H28.9134C28.9134 43.9214 28.2935 44.5413 27.5289 44.5413V46.5413ZM24.1444 43.1568C24.1444 45.026 25.6597 46.5413 27.5289 46.5413V44.5413C26.7642 44.5413 26.1444 43.9214 26.1444 43.1568H24.1444ZM27.5289 39.7722C25.6597 39.7722 24.1444 41.2875 24.1444 43.1568H26.1444C26.1444 42.3921 26.7642 41.7722 27.5289 41.7722V39.7722ZM30.9134 43.1568C30.9134 41.2875 29.3981 39.7722 27.5289 39.7722V41.7722C28.2935 41.7722 28.9134 42.3921 28.9134 43.1568H30.9134ZM30.2386 17.7188L22.5493 19.3516L22.9647 21.308L30.654 19.6752L30.2386 17.7188ZM30.085 18.6143C29.7078 18.3836 29.8061 17.8106 30.2386 17.7188L30.654 19.6752C31.9902 19.3914 32.2939 17.621 31.1286 16.9082L30.085 18.6143ZM27.1987 16.8489L30.085 18.6143L31.1286 16.9082L28.2423 15.1427L27.1987 16.8489ZM27.7363 16.8309C27.5768 16.9438 27.3654 16.9508 27.1987 16.8489L28.2423 15.1427C27.7272 14.8277 27.074 14.8495 26.5812 15.1982L27.7363 16.8309ZM22.9333 20.2292L27.7363 16.8309L26.5812 15.1982L21.7782 18.5965L22.9333 20.2292ZM22.5493 19.3516C23.069 19.2412 23.3671 19.9223 22.9333 20.2292L21.7782 18.5965C20.4379 19.5447 21.3588 21.649 22.9647 21.308L22.5493 19.3516Z" fill="#FF6168"/>
<path d="M32.8618 48.1975L32.1188 47.5283C31.871 47.8033 31.7955 48.1928 31.9225 48.5405C32.0494 48.8883 32.3581 49.1374 32.7249 49.1881L32.8618 48.1975ZM34.6648 44.1312L33.6723 44.0092C33.6714 44.0163 33.6706 44.0235 33.6699 44.0307L34.6648 44.1312ZM34.7429 40.2684L33.743 40.2848V40.2848L34.7429 40.2684ZM34.4965 34.6957L33.4994 34.7716H33.4994L34.4965 34.6957ZM34.4939 27.2916L33.5152 27.0866C33.5056 27.1325 33.4992 27.1791 33.4961 27.2259L34.4939 27.2916ZM32.813 13.8239L31.9402 14.3121L31.9402 14.3121L32.813 13.8239ZM32.1001 12.7005L31.5162 11.8887C31.0679 12.2111 30.9658 12.8359 31.2881 13.2842L32.1001 12.7005ZM34.8194 11.8474L34.7467 12.8447L34.8194 11.8474ZM40.2528 23.4692L39.2554 23.3965L40.2528 23.4692ZM39.837 26.3169L40.7876 26.6271C40.7975 26.5968 40.806 26.566 40.8129 26.5348L39.837 26.3169ZM38.3105 29.2199L37.5603 28.5587L37.5603 28.5587L38.3105 29.2199ZM37.7452 29.8491L37.0047 29.1771C37.0006 29.1815 36.9966 29.186 36.9927 29.1906L37.7452 29.8491ZM37.7452 29.8491L38.4857 30.5211C38.4898 30.5167 38.4938 30.5122 38.4978 30.5076L37.7452 29.8491ZM36.7054 36.4622L35.8241 36.9347L35.8241 36.9347L36.7054 36.4622ZM38.658 42.7464L39.6539 42.8369C39.6593 42.7781 39.6594 42.719 39.6543 42.6603L38.658 42.7464ZM38.4911 44.0873L37.5122 43.8827C37.5098 43.8945 37.5075 43.9063 37.5055 43.9182L38.4911 44.0873ZM33.1888 48.232L33.2614 47.2346H33.2614L33.1888 48.232ZM33.6048 48.8668C34.7334 47.6139 35.4805 46.0069 35.6597 44.2316L33.6699 44.0307C33.5347 45.3691 32.9722 46.5809 32.1188 47.5283L33.6048 48.8668ZM35.6573 44.2532C35.7566 43.4455 35.7692 41.8603 35.7428 40.252L33.743 40.2848C33.7699 41.92 33.7517 43.3635 33.6723 44.0092L35.6573 44.2532ZM35.7428 40.252C35.7143 38.5175 35.6334 36.4585 35.4936 34.6199L33.4994 34.7716C33.6356 36.5624 33.7151 38.5807 33.743 40.2848L35.7428 40.252ZM35.4936 34.6199C35.2893 31.9339 35.4044 28.6853 35.4918 27.3573L33.4961 27.2259C33.4056 28.6012 33.285 31.9538 33.4994 34.7716L35.4936 34.6199ZM35.4727 27.4965C35.7773 26.0421 35.9399 24.487 35.9399 22.8788H33.9399C33.9399 24.3534 33.7907 25.771 33.5152 27.0866L35.4727 27.4965ZM35.9399 22.8788C35.9399 19.3127 35.1381 15.9326 33.6858 13.3358L31.9402 14.3121C33.1964 16.5582 33.9399 19.5891 33.9399 22.8788H35.9399ZM33.6858 13.3358C33.4529 12.9195 33.195 12.5104 32.9121 12.1168L31.2881 13.2842C31.5241 13.6125 31.7419 13.9574 31.9402 14.3121L33.6858 13.3358ZM32.684 13.5124C33.3857 13.0077 34.0812 12.7962 34.7467 12.8447L34.892 10.85C33.6682 10.7608 32.5177 11.1685 31.5162 11.8887L32.684 13.5124ZM34.7467 12.8447C35.9487 12.9323 37.1786 13.9085 38.0925 15.8634C38.9907 17.7846 39.47 20.4509 39.2554 23.3965L41.2501 23.5419C41.4849 20.3203 40.9726 17.3014 39.9043 15.0164C38.8517 12.765 37.1402 11.0138 34.892 10.85L34.7467 12.8447ZM39.2554 23.3965C39.1868 24.338 39.0519 25.2438 38.861 26.0991L40.8129 26.5348C41.0255 25.5825 41.1745 24.5797 41.2501 23.5419L39.2554 23.3965ZM38.8863 26.0068C38.5556 27.0204 38.1138 27.9307 37.5603 28.5587L39.0607 29.8811C39.8688 28.9642 40.4164 27.765 40.7876 26.6271L38.8863 26.0068ZM37.5603 28.5587C37.3726 28.7716 37.188 28.975 37.0047 29.1771L38.4858 30.5211C38.6678 30.3205 38.8619 30.1066 39.0607 29.8811L37.5603 28.5587ZM36.9927 29.1906L36.9926 29.1906L38.4978 30.5076L38.4978 30.5076L36.9927 29.1906ZM37.0047 29.1771C36.1781 30.088 35.2656 31.0624 34.9173 32.3199C34.5472 33.6561 34.8447 35.1078 35.8241 36.9347L37.5868 35.9898C36.7236 34.3797 36.6699 33.4849 36.8447 32.8538C37.0413 32.144 37.57 31.5302 38.4857 30.5211L37.0047 29.1771ZM35.8241 36.9347C37.1973 39.4963 37.5454 41.4873 37.6618 42.8326L39.6543 42.6603C39.5192 41.0981 39.1114 38.8339 37.5868 35.9898L35.8241 36.9347ZM37.6621 42.656C37.6061 43.2726 37.5527 43.6893 37.5122 43.8827L39.4699 44.2919C39.5368 43.9719 39.5983 43.4495 39.6539 42.8369L37.6621 42.656ZM37.5055 43.9182C37.1608 45.9278 35.3377 47.3859 33.2614 47.2346L33.1161 49.2294C36.2291 49.4562 38.9598 47.2706 39.4767 44.2563L37.5055 43.9182ZM33.2614 47.2346C33.1729 47.2282 33.0853 47.2189 32.9987 47.207L32.7249 49.1881C32.854 49.206 32.9845 49.2198 33.1161 49.2294L33.2614 47.2346Z" fill="#FF6168"/>
</g>
<defs>
<clipPath id="clip0_222_5773">
<rect width="60" height="60" rx="12" fill="white"/>
</clipPath>
</defs>
</svg>
