<svg width="48" height="48" viewBox="0 0 48 48" fill="none" xmlns="http://www.w3.org/2000/svg">
<path d="M0.5 12C0.5 5.64873 5.64873 0.5 12 0.5H36C42.3513 0.5 47.5 5.64873 47.5 12V36C47.5 42.3513 42.3513 47.5 36 47.5H12C5.64873 47.5 0.5 42.3513 0.5 36V12Z" fill="white"/>
<path d="M0.5 12C0.5 5.64873 5.64873 0.5 12 0.5H36C42.3513 0.5 47.5 5.64873 47.5 12V36C47.5 42.3513 42.3513 47.5 36 47.5H12C5.64873 47.5 0.5 42.3513 0.5 36V12Z" stroke="#278FFF"/>
<path d="M29.0063 23.5159C26.5613 23.2302 26.5613 31.327 28.9427 31.0729C31.4194 30.8189 34.8169 28.882 34.8169 27.2309C34.8486 25.3576 31.4194 23.8017 29.0063 23.5159Z" fill="#FFA3A5"/>
<path d="M25.042 11.9187C25.1273 10.1065 25.6964 8.6517 27.1947 8.72226C27.9938 8.75988 28.7344 9.39736 29.1261 10.2265C29.5813 11.1902 29.8076 12.2988 29.4928 13.0704C28.8753 14.5835 27.24 14.8488 26.4297 14.3395C25.8656 13.9851 24.9756 13.3289 25.042 11.9187Z" stroke="#278EFF"/>
<path d="M30.5581 11.7073C30.6112 10.5791 31.6455 9.87405 32.1449 9.89756C32.6444 9.92108 33.6079 10.7202 33.5548 11.8484C33.4884 13.2586 32.4673 13.6816 31.9679 13.6581C31.4684 13.6346 30.4917 13.1175 30.5581 11.7073Z" stroke="#278EFF"/>
<path d="M39.8926 15.4446C40.392 15.4681 40.8693 15.9617 40.8472 16.4317C40.8251 16.9018 40.3035 17.3484 39.804 17.3248C39.2337 17.298 38.8273 16.8077 38.8494 16.3377C38.8715 15.8676 39.3931 15.4211 39.8926 15.4446Z" stroke="#278EFF"/>
<path d="M17 15.5804C13 15.1804 10.6666 17.0804 9.99995 18.0804C9.49995 18.5804 8.59995 19.9803 8.99995 21.5803C9.49995 23.5803 12 28.0803 12.5 29.5803C12.9 30.7803 12.6666 33.747 12.5 35.0803C12.3333 35.9137 12.4 37.8803 14 39.0803C15.6 40.2803 18 39.5803 19 39.0803C19.5 38.747 20.6 37.4803 21 35.0803C21.5 32.0803 19.5 29.0803 19.5 26.0803C19.5 23.0803 21 22.0803 21.5 20.5803C22 19.0803 22 16.0804 17 15.5804Z" stroke="#278EFF"/>
<path d="M30.9999 15.5804C27.7999 15.5804 26.6665 16.9137 26.4999 17.5803C25.9999 19.0803 26.4999 20.0803 26.9999 20.5803C28.9999 22.5803 30.4999 21.5803 32.4999 22.0803C34.0999 22.4803 34.8332 23.747 34.9999 24.0803C35.4999 25.0803 36.2999 27.0803 35.4999 29.0803C34.6999 31.0803 32.6142 32.0422 30.9999 32.5803C29.766 32.9916 28.4337 33.8449 27.9999 35.5803C27.4999 37.5803 28.3332 38.4137 28.9999 39.0803C29.4999 39.5803 31.4999 40.3803 33.4999 39.5803C35.9999 38.5803 36.4742 36.0033 35.9999 34.5803C35.4999 33.0803 35.4999 32.5803 35.9999 31.0803C36.213 30.441 36.3131 30.4539 36.9999 29.0803C37.6867 27.7067 37.9999 26.0803 38.4999 24.5803C39.6999 20.9803 38.7746 18.8551 37.4999 17.5803C36.4999 16.5803 34.1999 15.5804 30.9999 15.5804Z" stroke="#278EFF"/>
<path d="M22.9999 12.0803C22.9999 10.1527 22.4999 8.58032 20.9999 8.58032C20.1999 8.58032 19.4301 9.21988 18.9999 10.0803C18.4999 11.0803 18.2217 12.2457 18.4999 13.0803C19.0455 14.717 20.6665 15.0803 21.4999 14.5803C22.08 14.2323 22.9999 13.5803 22.9999 12.0803Z" stroke="#278EFF"/>
<path d="M17.4999 11.5803C17.4999 10.3803 16.4999 9.58032 15.9999 9.58032C15.4999 9.58032 14.4999 10.3803 14.4999 11.5803C14.4999 13.0803 15.4999 13.5803 15.9999 13.5803C16.4999 13.5803 17.4999 13.0803 17.4999 11.5803Z" stroke="#278EFF"/>
<path d="M13.9999 12.5803C13.9999 11.3154 12.8169 11.0803 12.4999 11.0803C12.1829 11.0803 11.4999 11.5803 11.4999 12.5803C11.4999 14.2296 12.9999 14.0803 12.9999 14.0803C12.9999 14.0803 13.9999 14.0803 13.9999 12.5803Z" stroke="#278EFF"/>
<path d="M10.9999 13.5803C10.8219 13.2243 10.1211 12.7698 9.5 13.0803C8.77861 13.441 9 14.5803 9.5 15.0803C9.79958 15.3799 10.5 15.5803 11 15.0803C11.4999 14.5804 11.1781 13.9367 11 13.5806L10.9999 13.5803Z" stroke="#278EFF"/>
<path d="M8 15.0803C7.5 15.0803 7 15.5803 7 16.0803C7 16.5803 7.5 17.0803 8 17.0803C8.57094 17.0803 9 16.5803 9 16.0803C9 15.5803 8.5 15.0803 8 15.0803Z" stroke="#278EFF"/>
</svg>
