<svg width="48" height="48" viewBox="0 0 48 48" fill="none" xmlns="http://www.w3.org/2000/svg">
<path d="M0.5 12C0.5 5.64873 5.64873 0.5 12 0.5H36C42.3513 0.5 47.5 5.64873 47.5 12V36C47.5 42.3513 42.3513 47.5 36 47.5H12C5.64873 47.5 0.5 42.3513 0.5 36V12Z" fill="white"/>
<path d="M0.5 12C0.5 5.64873 5.64873 0.5 12 0.5H36C42.3513 0.5 47.5 5.64873 47.5 12V36C47.5 42.3513 42.3513 47.5 36 47.5H12C5.64873 47.5 0.5 42.3513 0.5 36V12Z" stroke="#278FFF"/>
<path d="M29.0063 23.5159C26.5613 23.2302 26.5613 31.327 28.9427 31.0729C31.4194 30.8189 34.8169 28.882 34.8169 27.2309C34.8486 25.3576 31.4194 23.8017 29.0063 23.5159Z" fill="#FFA3A5"/>
<path fill-rule="evenodd" clip-rule="evenodd" d="M19.4471 10.3039C19.8321 9.53386 20.4639 9.08032 20.9999 9.08032C21.2825 9.08032 21.4942 9.15267 21.6616 9.26794C21.8331 9.38604 21.9858 9.56866 22.1139 9.82852C22.3761 10.3606 22.4999 11.1447 22.4999 12.0803C22.4999 12.7178 22.3077 13.1492 22.0708 13.4578C21.8263 13.7762 21.5164 13.9873 21.2426 14.1516C20.7097 14.4713 19.4285 14.2851 18.9742 12.9222C18.8712 12.6133 18.8614 12.206 18.9495 11.7342C19.0368 11.2672 19.214 10.7702 19.4471 10.3039ZM20.9999 8.08032C19.9359 8.08032 19.0281 8.9059 18.5527 9.85672C18.3073 10.3474 18.1084 10.8821 17.9945 11.4115C17.9519 10.7435 17.6606 10.1895 17.3104 9.79731C17.1207 9.58495 16.9074 9.41229 16.6933 9.28995C16.4878 9.17256 16.2442 9.08032 15.9999 9.08032C15.7555 9.08032 15.5119 9.17256 15.3065 9.28995C15.0924 9.41229 14.879 9.58495 14.6894 9.79731C14.3666 10.1589 14.0938 10.6579 14.0197 11.257C13.9041 11.1295 13.7748 11.0231 13.6403 10.9361C13.2104 10.6581 12.7371 10.5803 12.4999 10.5803C12.3032 10.5803 12.1141 10.6524 11.9605 10.7407C11.7987 10.8338 11.6391 10.9662 11.4984 11.1334C11.2135 11.472 10.9999 11.9606 10.9999 12.5803C10.9999 12.6752 11.0041 12.7667 11.0124 12.8548C10.8906 12.762 10.7554 12.6825 10.6151 12.6216C10.2445 12.4609 9.75385 12.3944 9.27639 12.6331C8.66674 12.9379 8.50759 13.558 8.54322 14.0633C8.56042 14.3072 8.62257 14.5573 8.72145 14.7893C8.51048 14.6626 8.26379 14.5803 8 14.5803C7.58738 14.5803 7.21662 14.7816 6.95895 15.0393C6.70127 15.2969 6.5 15.6677 6.5 16.0803C6.5 16.4929 6.70127 16.8637 6.95895 17.1214C7.21662 17.379 7.58738 17.5803 8 17.5803C8.86964 17.5803 9.5 16.8334 9.5 16.0803C9.5 15.9303 9.47338 15.7857 9.42711 15.6502C9.63122 15.7718 9.87481 15.8549 10.1295 15.8781C10.5329 15.9148 10.9855 15.8019 11.3536 15.4339C11.7287 15.0588 11.8021 14.6171 11.7539 14.2395C11.8496 14.3068 11.9479 14.3612 12.0446 14.4047C12.2991 14.5193 12.5462 14.5613 12.7238 14.5761C12.814 14.5837 12.8902 14.5846 12.9459 14.5834C12.9739 14.5828 12.997 14.5817 13.0144 14.5806L13.026 14.5798L13.0361 14.5793C13.0522 14.5785 13.0724 14.5771 13.0961 14.5745C13.1433 14.5695 13.2054 14.56 13.2774 14.542C13.4209 14.5061 13.6106 14.4348 13.7999 14.2928C14.1002 14.0676 14.3427 13.7094 14.446 13.1786C14.8731 13.8054 15.5215 14.0803 15.9999 14.0803C16.6366 14.0803 17.5747 13.5931 17.8911 12.4375C17.8992 12.7133 17.9406 12.9838 18.0255 13.2384C18.6624 15.149 20.6233 15.6893 21.7571 15.0091C22.0635 14.8253 22.5035 14.5364 22.864 14.0668C23.2321 13.5874 23.4999 12.9428 23.4999 12.0803C23.4999 11.0884 23.3736 10.1224 23.0109 9.38643C22.8264 9.01224 22.5729 8.68129 22.2288 8.44432C21.8805 8.20452 21.4673 8.08032 20.9999 8.08032ZM12.9896 13.5802L12.9888 13.5803H12.9751L12.9538 13.5824L12.9517 13.5826C12.9471 13.5829 12.938 13.5834 12.925 13.5836C12.8986 13.5842 12.8577 13.5838 12.8072 13.5796C12.7036 13.5709 12.5757 13.5471 12.4552 13.4929C12.3387 13.4404 12.2335 13.362 12.1544 13.2394C12.0752 13.1167 11.9999 12.9152 11.9999 12.5803C11.9999 12.2001 12.1278 11.9386 12.2636 11.7773C12.3333 11.6944 12.4039 11.6393 12.4593 11.6074C12.4886 11.5906 12.5076 11.5835 12.5159 11.5807C12.612 11.5854 12.8705 11.6292 13.0972 11.7758C13.3077 11.9119 13.4999 12.1374 13.4999 12.5803C13.4999 13.2083 13.2981 13.4191 13.1999 13.4928C13.1392 13.5383 13.0788 13.5608 13.0349 13.5718C13.0132 13.5772 12.9971 13.5794 12.9896 13.5802ZM14.9999 11.5803C14.9999 11.124 15.1897 10.7385 15.4354 10.4633C15.5582 10.3257 15.6886 10.2234 15.8026 10.1582C15.8594 10.1258 15.9078 10.105 15.9452 10.093C15.9801 10.0817 15.9979 10.0805 15.9998 10.0803H16C16.0019 10.0805 16.0197 10.0817 16.0546 10.093C16.092 10.105 16.1404 10.1258 16.1971 10.1582C16.3112 10.2234 16.4415 10.3257 16.5644 10.4633C16.8101 10.7385 16.9999 11.124 16.9999 11.5803C16.9999 12.8042 16.2237 13.0803 15.9999 13.0803C15.776 13.0803 14.9999 12.8042 14.9999 11.5803ZM15.9998 10.0803C16 10.0803 16.0001 10.0803 15.9999 10.0803C15.9998 10.0803 15.9997 10.0803 15.9998 10.0803L15.9998 10.0803ZM9.72361 13.5275C9.86728 13.4557 10.0376 13.4612 10.2171 13.5391C10.4116 13.6234 10.5281 13.7548 10.5527 13.8039C10.6462 13.9909 10.733 14.1728 10.7598 14.3506C10.7824 14.501 10.7589 14.6143 10.6464 14.7268C10.5145 14.8588 10.3669 14.8956 10.2202 14.8822C10.0562 14.8673 9.91693 14.7901 9.85355 14.7268C9.69671 14.5699 9.56077 14.2769 9.54074 13.9929C9.52103 13.7134 9.61188 13.5834 9.72361 13.5275ZM7.5 16.0803C7.5 15.9929 7.54873 15.8637 7.66605 15.7464C7.78338 15.629 7.91262 15.5803 8 15.5803C8.08738 15.5803 8.21662 15.629 8.33395 15.7464C8.45127 15.8637 8.5 15.9929 8.5 16.0803C8.5 16.3273 8.27225 16.5803 8 16.5803C7.91262 16.5803 7.78338 16.5316 7.66605 16.4143C7.54873 16.2969 7.5 16.1677 7.5 16.0803ZM10.416 18.3577C10.9796 17.5123 13.1334 15.6962 16.9502 16.0779C19.3563 16.3185 20.4226 17.1432 20.8767 17.9505C21.3441 18.7815 21.251 19.746 21.0256 20.4222C20.9184 20.744 20.7538 21.0499 20.5478 21.3934C20.4912 21.4877 20.4303 21.5866 20.3669 21.6895L20.3669 21.6896C20.2081 21.9476 20.0336 22.231 19.8722 22.5308C19.4029 23.4024 19 24.4833 19 26.0803C19 27.4915 19.4177 28.8989 19.8105 30.2225C19.8602 30.3898 19.9095 30.5558 19.9575 30.7203C20.396 32.224 20.7359 33.6232 20.5068 34.9981C20.1322 37.2455 19.1266 38.3761 18.746 38.6481C18.289 38.8716 17.5145 39.1409 16.6779 39.22C15.8202 39.3012 14.9628 39.1775 14.3 38.6803C12.9162 37.6425 12.8432 35.9135 12.9902 35.1784L12.9938 35.1605L12.9961 35.1423C13.081 34.4628 13.1826 33.3714 13.2123 32.2941C13.2412 31.2431 13.2059 30.117 12.9743 29.4222C12.7581 28.7735 12.1968 27.6131 11.5952 26.3692C11.4646 26.0991 11.332 25.8251 11.2007 25.5515C10.4428 23.9726 9.71997 22.3988 9.48502 21.4591C9.14449 20.0969 9.91903 18.8684 10.3535 18.4339L10.3885 18.3989L10.416 18.3577ZM17.0497 15.0829C12.9151 14.6694 10.4123 16.6027 9.61149 17.7624C9.03994 18.3561 8.06473 19.901 8.51488 21.7016C8.77994 22.7618 9.55707 24.4381 10.2992 25.9842C10.4384 26.2742 10.5764 26.5596 10.7103 26.8368L10.7103 26.8368C11.3114 28.0804 11.832 29.1575 12.0256 29.7384C12.194 30.2436 12.242 31.2009 12.2126 32.2665C12.1842 33.2969 12.0872 34.3461 12.0059 35.0012C11.8242 35.9434 11.8959 38.1273 13.7 39.4803C14.6371 40.1832 15.7797 40.3095 16.772 40.2156C17.7666 40.1215 18.6762 39.8012 19.2236 39.5275L19.2514 39.5136L19.2773 39.4963C19.9164 39.0703 21.0757 37.6673 21.4931 35.1625C21.764 33.5375 21.3539 31.9366 20.9175 30.4403C20.8684 30.2721 20.8191 30.1053 20.7701 29.9398C20.3725 28.5957 20 27.3361 20 26.0803C20 24.6774 20.347 23.7582 20.7527 23.0049C20.8997 22.7318 21.0496 22.4884 21.2023 22.2404L21.2024 22.2403C21.2694 22.1314 21.3371 22.0215 21.4053 21.9079C21.6211 21.5482 21.8316 21.1667 21.9743 20.7384C22.2489 19.9146 22.4058 18.6292 21.7482 17.4602C21.0773 16.2675 19.6436 15.3423 17.0497 15.0829ZM26.985 17.7016C27.0718 17.3541 27.9119 16.0804 30.9999 16.0804C34.1171 16.0804 36.2703 17.0578 37.1463 17.9339C37.7256 18.5131 38.2209 19.2792 38.4387 20.3116C38.6572 21.3471 38.604 22.6868 38.0255 24.4222C37.8554 24.9325 37.7039 25.4662 37.5561 25.9869L37.5561 25.987L37.556 25.987C37.4839 26.2411 37.4126 26.4922 37.3405 26.7358C37.116 27.4943 36.8759 28.2103 36.5527 28.8567C36.2644 29.4332 36.0829 29.7584 35.9496 29.9972C35.9266 30.0383 35.9052 30.0767 35.8848 30.1135C35.737 30.3806 35.6444 30.5658 35.5255 30.9222C35.2731 31.6796 35.1249 32.2445 35.1249 32.8303C35.1249 33.4161 35.2731 33.9811 35.5255 34.7384C35.9342 35.9643 35.5188 38.2342 33.3142 39.1161C32.4223 39.4729 31.5238 39.4752 30.7854 39.3275C30.0241 39.1753 29.5068 38.8801 29.3534 38.7268C29.0149 38.3882 28.7091 38.0758 28.5229 37.6355C28.3434 37.2113 28.2562 36.6165 28.485 35.7016C28.8611 34.197 30.0103 33.4372 31.158 33.0547C32.7811 32.5136 35.0734 31.4927 35.9641 29.266C36.8495 27.0526 35.9574 24.8773 35.4471 23.8567C35.2573 23.4771 34.4339 22.0484 32.6211 21.5953C32.0682 21.457 31.5565 21.4244 31.0866 21.4163C30.9159 21.4134 30.7574 21.4135 30.6056 21.4135C30.3213 21.4136 30.0603 21.4137 29.7855 21.3941C29.0149 21.339 28.2579 21.1313 27.3534 20.2268C26.98 19.8533 26.5373 19.0491 26.9742 17.7384L26.9803 17.7202L26.985 17.7016ZM30.9999 15.0804C27.7102 15.0804 26.2806 16.4545 26.02 17.439C25.4661 19.1195 26.0219 20.3094 26.6463 20.9339C27.7418 22.0294 28.7349 22.3216 29.7143 22.3916C30.0233 22.4136 30.3472 22.4137 30.6539 22.4138H30.6539H30.6541C30.7974 22.4139 30.9369 22.4139 31.0694 22.4162C31.5057 22.4237 31.9316 22.4536 32.3786 22.5654C33.7658 22.9122 34.4091 24.0168 34.5527 24.3039C35.0424 25.2834 35.7503 27.1081 35.0356 28.8946C34.3263 30.6679 32.4474 31.5708 30.8418 32.106C29.5216 32.546 28.0064 33.4927 27.5148 35.4591C27.2435 36.5441 27.323 37.366 27.6019 38.0251C27.8693 38.6571 28.3029 39.0906 28.6292 39.4168L28.6463 39.4339C28.993 39.7806 29.7256 40.1354 30.5893 40.3081C31.4759 40.4854 32.5775 40.4878 33.6856 40.0446C36.4809 38.9264 37.0143 36.0424 36.4742 34.4222C36.2267 33.6796 36.1249 33.2445 36.1249 32.8303C36.1249 32.4161 36.2267 31.9811 36.4742 31.2384C36.5685 30.9556 36.6325 30.8276 36.7597 30.5979L36.8229 30.4844C36.9572 30.2438 37.1484 29.9014 37.4471 29.3039C37.8107 28.5768 38.0706 27.7927 38.2994 27.0196C38.3784 26.7525 38.453 26.4896 38.5267 26.23L38.5268 26.2296C38.6707 25.7226 38.811 25.2281 38.9742 24.7384C39.5958 22.8738 39.68 21.3509 39.4171 20.1051C39.1536 18.8562 38.549 17.9223 37.8534 17.2268C36.7295 16.1028 34.2826 15.0804 30.9999 15.0804ZM28.674 10.4401C28.3302 9.71228 27.7227 9.24767 27.1712 9.2217C26.8826 9.20811 26.6636 9.26783 26.4901 9.369C26.3139 9.47179 26.1562 9.63415 26.02 9.86696C25.74 10.3454 25.5826 11.0667 25.5414 11.9422C25.4884 13.0685 26.1693 13.5854 26.6957 13.9162C27.239 14.2577 28.528 14.1113 29.0298 12.8815C29.1416 12.6077 29.17 12.2365 29.1037 11.7947C29.0382 11.3578 28.885 10.8867 28.674 10.4401ZM27.2182 8.22281C28.265 8.2721 29.1387 9.08244 29.5782 10.013C29.8038 10.4906 29.981 11.0092 30.0719 11.5199C30.1462 10.8788 30.469 10.3637 30.838 10.0097C31.0382 9.81766 31.2595 9.66528 31.4779 9.56076C31.6882 9.46011 31.9314 9.38696 32.1685 9.39812C32.4055 9.40928 32.6408 9.50496 32.8407 9.62493C33.0483 9.74951 33.2543 9.92201 33.4356 10.1321C33.7976 10.5516 34.088 11.1545 34.0542 11.8719L34.0528 11.8991C34.1819 11.7805 34.3227 11.6911 34.4644 11.6249C34.9207 11.4116 35.3981 11.4345 35.5649 11.4425L35.576 11.443C35.9777 11.4619 36.3361 11.6639 36.5848 11.921C36.8315 12.1761 37.0258 12.5446 37.0065 12.9531C37.0027 13.0348 36.9936 13.1135 36.9798 13.1892C37.1101 13.1029 37.2538 13.0314 37.4006 12.9794C37.7738 12.8472 38.2575 12.8088 38.7167 13.0519C39.3123 13.3672 39.4554 13.9708 39.3946 14.4671C39.3683 14.682 39.3034 14.8989 39.2078 15.1007C39.4206 14.9951 39.6632 14.9332 39.9161 14.9451C40.3178 14.964 40.6763 15.166 40.9249 15.4231C41.1716 15.6783 41.3659 16.0468 41.3466 16.4553C41.3274 16.8637 41.0994 17.2124 40.8298 17.4432C40.5581 17.6758 40.1823 17.8432 39.7805 17.8243C38.9401 17.7847 38.3146 17.0658 38.3499 16.3142C38.3558 16.1902 38.3808 16.0718 38.4204 15.9606C37.7222 16.3385 36.9529 16.0818 36.5364 15.6511C36.2079 15.3113 36.1939 14.8445 36.2346 14.5269C36.2442 14.4517 36.2579 14.3768 36.2747 14.3033C36.2425 14.328 36.2098 14.3516 36.177 14.374C35.7771 14.6466 35.2916 14.7863 34.9188 14.7687C34.517 14.7498 34.1586 14.5478 33.91 14.2907C33.6975 14.071 33.524 13.7673 33.4922 13.4264C33.0336 13.9685 32.3923 14.1786 31.9444 14.1576C31.3304 14.1286 30.3959 13.6333 30.1286 12.5043C30.1075 12.7655 30.0531 13.0206 29.9557 13.2594C29.2227 15.0558 27.2409 15.44 26.1636 14.7629C25.5619 14.3847 24.4628 13.5892 24.5425 11.8951C24.5866 10.9584 24.7565 10.0462 25.1569 9.36189C25.3609 9.0133 25.6318 8.71194 25.9863 8.50518C26.3436 8.2968 26.7576 8.20112 27.2182 8.22281ZM33.0553 11.8249C33.0747 11.4141 32.9098 11.0534 32.6785 10.7854C32.5632 10.6517 32.438 10.5495 32.3261 10.4824C32.2705 10.449 32.2221 10.4267 32.1837 10.413C32.1647 10.4063 32.1496 10.4022 32.1385 10.3998C32.133 10.3986 32.1288 10.3979 32.1258 10.3975C32.1228 10.3971 32.1214 10.397 32.1214 10.397C32.1214 10.397 32.12 10.3969 32.117 10.3971C32.114 10.3972 32.1098 10.3975 32.1042 10.3981C32.0929 10.3995 32.0774 10.4022 32.0579 10.4071C32.0184 10.4171 31.9681 10.4348 31.9096 10.4628C31.7919 10.5191 31.6577 10.6091 31.5303 10.7313C31.2748 10.9764 31.0768 11.3201 31.0575 11.7308C31.0054 12.8371 31.7388 13.1468 31.9914 13.1587C32.244 13.1706 33.0032 12.9311 33.0553 11.8249ZM35.5289 12.4419C35.3681 12.4343 35.1078 12.428 34.8879 12.5308C34.7884 12.5773 34.7021 12.6444 34.6351 12.7478C34.5671 12.8526 34.5004 13.0236 34.4871 13.3056C34.4842 13.3672 34.5176 13.4805 34.6289 13.5956C34.7382 13.7087 34.8682 13.7652 34.9658 13.7698C35.0925 13.7758 35.3673 13.7157 35.6138 13.5477C35.846 13.3893 35.9948 13.1777 36.0076 12.9061C36.0105 12.8445 35.9772 12.7312 35.8659 12.6162C35.7565 12.5031 35.6266 12.4465 35.5289 12.4419ZM38.2488 13.9357C38.1013 13.8576 37.9216 13.8557 37.7346 13.922C37.5319 13.9938 37.4138 14.1123 37.3924 14.1484C37.3301 14.2535 37.2521 14.4541 37.2265 14.6541C37.1984 14.8731 37.2479 14.9482 37.2553 14.9559C37.4501 15.1573 37.7918 15.2316 38.069 14.9942C38.2291 14.8572 38.3712 14.597 38.402 14.3456C38.4313 14.1066 38.3578 13.9933 38.2488 13.9357ZM40.3477 16.4082C40.3506 16.3466 40.3173 16.2333 40.206 16.1183C40.0967 16.0052 39.9667 15.9486 39.869 15.944C39.7713 15.9394 39.6367 15.9835 39.5172 16.0859C39.3956 16.1899 39.3517 16.2996 39.3488 16.3612C39.34 16.5497 39.5273 16.8113 39.8275 16.8254C39.9252 16.83 40.0599 16.7859 40.1794 16.6836C40.301 16.5795 40.3448 16.4698 40.3477 16.4082Z" fill="#278EFF"/>
</svg>
