<svg width="30" height="73" viewBox="0 0 30 73" fill="none" xmlns="http://www.w3.org/2000/svg">
<path d="M11.2317 10.1715L11.4548 11.1463C11.4669 11.1436 11.4789 11.1406 11.4908 11.1374L11.2317 10.1715ZM27.8434 13.5504L28.76 13.1505L27.8434 13.5504ZM26.0941 26.6135L26.9829 27.0717C27.0063 27.0263 27.0262 26.9791 27.0424 26.9307L26.0941 26.6135ZM5.87362 1.65104C5.97481 1.10811 5.6167 0.585946 5.07376 0.484758C4.53083 0.383569 4.00866 0.741677 3.90747 1.28461L5.87362 1.65104ZM14.4505 38.2861L13.9446 37.4236L14.4505 38.2861ZM10.5517 57.7282L11.3923 57.1864L10.5517 57.7282ZM0.457507 70.8073C0.400747 71.3567 0.80008 71.8481 1.34944 71.9048L10.3018 72.8298C10.8511 72.8865 11.3425 72.4872 11.3993 71.9378C11.456 71.3885 11.0567 70.8971 10.5073 70.8404L2.54969 70.0182L3.37186 62.0605C3.42861 61.5112 3.02928 61.0198 2.47992 60.9631C1.93056 60.9063 1.4392 61.3056 1.38244 61.855L0.457507 70.8073ZM11.4908 11.1374C14.2319 10.402 17.5928 9.77685 20.5471 10.0393C23.4852 10.3004 25.8174 11.407 26.9268 13.9502L28.76 13.1505C27.2418 9.67034 24.046 8.34234 20.7241 8.04718C17.4184 7.75348 13.7872 8.45059 10.9726 9.20569L11.4908 11.1374ZM26.9268 13.9502C27.6962 15.714 27.5088 18.1711 26.9414 20.6181C26.3805 23.0369 25.525 25.1623 25.1457 26.2963L27.0424 26.9307C27.3742 25.9388 28.3003 23.6116 28.8897 21.0699C29.4726 18.5562 29.8044 15.5446 28.76 13.1505L26.9268 13.9502ZM11.0085 9.19676C7.45338 10.0106 5.22193 9.9339 3.91039 9.51573C2.66737 9.1194 2.30627 8.45036 2.24129 7.88273L0.254269 8.11023C0.421842 9.57388 1.4256 10.8227 3.30284 11.4212C5.11156 11.9979 7.75578 11.9931 11.4548 11.1463L11.0085 9.19676ZM2.24129 7.88273C2.21779 7.67748 2.26369 7.48865 2.44933 7.21215C2.66518 6.89063 2.97896 6.57649 3.4434 6.08403C4.33205 5.14178 5.46502 3.84342 5.87362 1.65104L3.90747 1.28461C3.60662 2.8989 2.80193 3.84922 1.98841 4.71181C1.60177 5.12178 1.12335 5.5991 0.788837 6.09735C0.424111 6.6406 0.161487 7.29984 0.254269 8.11023L2.24129 7.88273ZM25.2052 26.1553C24.0848 28.3286 20.2081 33.7497 13.9446 37.4236L14.9565 39.1487C21.5963 35.2541 25.7173 29.5266 26.9829 27.0717L25.2052 26.1553ZM13.9446 37.4236C9.69025 39.919 7.40377 43.3119 6.83441 47.0651C6.27024 50.7841 7.41411 54.7059 9.71118 58.2699L11.3923 57.1864C9.27921 53.9079 8.34018 50.4738 8.81179 47.365C9.27822 44.2904 11.1462 41.3836 14.9565 39.1487L13.9446 37.4236ZM9.71118 58.2699C10.4794 59.4618 10.6142 60.4149 10.4346 61.2397C10.2457 62.1074 9.67533 62.9908 8.72886 63.9501C7.78546 64.9064 6.55238 65.8562 5.15845 66.8798C3.78569 67.8879 2.25721 68.9673 0.821518 70.1341L2.0829 71.6862C3.46819 70.5603 4.92864 69.5299 6.34224 68.4918C7.73466 67.4693 9.08537 66.4365 10.1526 65.3547C11.2168 64.2761 12.0839 63.0658 12.3889 61.6652C12.7031 60.2216 12.3881 58.7316 11.3923 57.1864L9.71118 58.2699Z" fill="#FF4B50"/>
</svg>
