<svg width="76" height="36" viewBox="0 0 76 36" fill="none" xmlns="http://www.w3.org/2000/svg">
<g clip-path="url(#clip0_5_784)">
<path d="M31.6421 15.7063C31.6421 12.8734 33.8491 10.9385 36.7085 10.9385C39.5677 10.9385 41.7748 12.8732 41.7748 15.7063C41.7748 18.5395 39.5678 20.4743 36.7085 20.4743C33.8491 20.4743 31.6421 18.5396 31.6421 15.7063ZM38.9293 15.7063C38.9293 14.4211 38.0547 13.3984 36.7084 13.3984C35.3622 13.3984 34.4877 14.4211 34.4877 15.7063C34.4877 16.9917 35.362 18.0142 36.7084 18.0142C38.0547 18.0142 38.9293 16.9918 38.9293 15.7063Z" fill="#FF0000"/>
<path d="M47.8678 20.309L46.591 17.4068H45.5776V20.309H42.7739V11.0908H47.7153C49.8805 11.0908 51.0463 12.5281 51.0463 14.2555C51.0463 15.8449 50.1165 16.6878 49.3808 17.0474L51.0601 20.3089L47.8678 20.309ZM48.201 14.2418C48.201 13.7441 47.7568 13.5233 47.2849 13.5233H45.5776V14.9742H47.2849C47.7568 14.9742 48.201 14.753 48.201 14.2418Z" fill="#FF0000"/>
<path d="M54.0309 20.309V13.5233H51.5464V11.0908H59.3055V13.5233H56.8347V20.309H54.0309Z" fill="#FF0000"/>
<path d="M59.5273 15.7063C59.5273 12.8734 61.7343 10.9385 64.5936 10.9385C67.4528 10.9385 69.6599 12.8732 69.6599 15.7063C69.6599 18.5395 67.4529 20.4743 64.5936 20.4743C61.7345 20.4743 59.5273 18.5396 59.5273 15.7063ZM66.8143 15.7063C66.8143 14.4211 65.94 13.3984 64.5935 13.3984C63.2471 13.3984 62.3726 14.4211 62.3726 15.7063C62.3726 16.9917 63.2469 18.0142 64.5935 18.0142C65.94 18.0142 66.8143 16.9918 66.8143 15.7063Z" fill="#FF0000"/>
<path d="M27.4282 29.644L28.8857 27.5711C29.5796 28.2346 30.6206 28.7595 31.8698 28.7595C32.3974 28.7595 32.897 28.6214 32.897 28.2621C32.897 27.3776 27.7335 28.2756 27.7335 24.6412C27.7335 23.0795 29.0383 21.5869 31.5784 21.5869C33.0913 21.5869 34.4515 22.0151 35.5065 22.8722L34.0075 24.8486C33.2024 24.2405 32.1615 23.9365 31.2869 23.9365C30.7318 23.9365 30.5792 24.1162 30.5792 24.3511C30.5792 25.2216 35.7287 24.4753 35.7287 27.9026C35.7287 29.9343 34.2157 31.1089 31.7311 31.1089C29.7601 31.109 28.4135 30.5287 27.4282 29.644Z" fill="#FF0000"/>
<path d="M44.8336 30.9428V25.401L42.7653 30.9428H41.5161L39.4479 25.401V30.9428H36.644V21.7246H40.5168L42.1405 26.1471L43.7645 21.7246H47.6372V30.9428H44.8336Z" fill="#FF0000"/>
<path d="M55.3127 30.9428L54.9796 29.8647H51.6484L51.3152 30.9428H48.1367L51.5512 21.7246H55.0767L58.4911 30.9428H55.3127ZM53.314 24.4612L52.3978 27.4326H54.2299L53.314 24.4612Z" fill="#FF0000"/>
<path d="M64.0857 30.9428L62.8086 28.0404H61.7954V30.9428H58.9917V21.7246H63.9329C66.0984 21.7246 67.2642 23.1618 67.2642 24.8896C67.2642 26.4789 66.3341 27.3218 65.5984 27.681L67.2777 30.9427H64.0857V30.9428ZM64.4187 24.8757C64.4187 24.378 63.9744 24.1572 63.5026 24.1572H61.7953V25.6082H63.5026C63.9746 25.6082 64.4187 25.387 64.4187 24.8757Z" fill="#FF0000"/>
<path d="M70.2483 30.9428V24.1572H67.7637V21.7246H75.5228V24.1572H73.052V30.9428H70.2483Z" fill="#FF0000"/>
<path d="M15.5826 11.6727C17.4034 10.5293 19.0033 10.7229 19.4462 8.14036C19.5888 7.24705 19.0252 6.6466 18.6004 6.51306C18.3103 6.42172 17.7035 6.13932 17.6389 6.11718C17.335 6.0132 17.3445 5.38928 17.9758 5.25963C18.1571 5.22241 18.3473 5.24917 18.5315 5.23068C18.7147 5.21256 18.8688 5.13411 18.8986 4.77253C18.9049 4.69883 18.9609 4.53051 18.997 4.47468C19.1351 4.26367 19.0353 4.20359 19.0206 3.9809C19.0109 3.83203 19.024 3.7818 19.1962 3.70397C19.2853 3.66383 19.4301 3.6451 19.3458 3.39918C19.3276 3.34421 19.2353 3.08966 19.2177 3.03529C19.1183 2.7282 19.1767 2.6742 19.2291 2.40189C19.4145 1.44083 18.5879 0.252466 17.6245 0.0883988C17.4034 0.0505744 15.5928 -0.330466 15.0041 1.34767C14.8286 1.84766 14.8715 2.36126 15.0157 2.86745C15.1231 3.24326 15.3811 3.72172 15.3223 4.13183C15.2605 4.56213 15.1209 4.80671 14.8628 5.04132C14.4715 5.26705 14.6046 5.86348 14.7526 6.17386C15.0327 6.76153 16.8811 7.80176 14.4298 9.95544C14.0111 10.3233 12.785 11.2666 12.8549 11.9892C13.1011 12.5904 13.0202 12.3569 13.2642 12.959C13.3335 13.13 13.3969 13.3027 13.4513 13.477C13.9169 12.7349 14.7145 12.218 15.5826 11.6727Z" fill="#FF7100"/>
<path d="M9.72513 27.7456C9.55828 27.2314 9.61715 26.8594 9.47888 26.6879C9.34977 26.5281 8.71337 26.7078 8.46443 26.787C7.8119 26.9955 7.2891 27.4518 6.75311 27.8661C5.90062 28.5246 5.05046 29.1849 4.19956 29.8447C3.9924 30.0053 3.75824 30.0943 3.49757 30.1193C2.99529 30.167 2.49179 30.2127 1.98987 30.2676C1.72469 30.2964 1.4584 30.3278 1.19883 30.3844C0.824931 30.4653 0.622162 30.732 0.641217 31.11C0.661372 31.508 0.973832 31.903 0.893335 32.7021C0.842154 33.2117 0.481445 33.7508 0.481445 34.2615C0.481445 35.0934 0.747121 35.7311 0.817113 35.8256C0.944271 35.9968 1.1413 35.9923 1.27139 35.8238C1.331 35.7472 1.38401 35.6593 1.41406 35.5678C1.66337 34.8145 2.08027 34.1469 2.47566 33.4678C2.57729 33.2929 2.69798 33.1282 2.79277 32.9499C3.16202 32.2566 3.74798 31.8119 4.45926 31.5219C5.48214 31.1042 6.52273 30.728 7.5367 30.292C8.69798 29.793 9.05551 29.5058 10.2068 28.9851C10.3631 28.9037 10.3576 28.7615 10.282 28.5978C10.1478 28.3067 9.79073 27.948 9.72513 27.7456Z" fill="#FF0000"/>
<path d="M14.3964 21.8601C13.8837 21.8254 13.6234 21.712 13.2603 21.5469C12.9297 21.3968 12.6583 21.1232 12.4447 20.8289C11.9082 21.8403 11.5392 22.915 11.2671 24.0274C11.1502 24.5052 11.1407 24.8215 11.0063 25.2952C10.8261 25.8068 10.6581 26.0182 10.7689 26.5009C10.8576 26.8885 12.6301 28.2873 13.4134 27.3372C13.7998 26.906 13.903 26.7302 14.3048 26.3131C15.1409 25.4465 15.7721 24.4544 16.232 23.3485C16.4099 22.9199 16.5982 22.4953 16.7734 22.0664C16.9455 21.5796 14.9093 21.8951 14.3964 21.8601Z" fill="#EB00B3"/>
<path d="M13.3133 8.7457C13.9888 8.12141 14.3802 7.54626 14.0305 6.64614C13.8847 6.27057 13.4418 5.95606 13.0782 5.87178C13.0782 5.87178 12.9515 5.8134 12.7552 5.83602C12.2253 5.89634 11.9606 6.04205 11.5429 6.38988C11.3187 6.57597 11.0604 6.73334 10.7954 6.85752C10.0696 7.19843 9.37019 7.5746 8.76079 8.10499C8.27671 8.52653 7.79556 8.95671 7.2763 9.33179C6.78098 9.68924 6.51677 10.1479 6.41294 10.7328C6.19136 11.9836 6.23693 13.2397 6.30484 14.498C6.34063 15.1673 6.45741 15.7147 6.46315 16.3839C6.46559 16.6735 6.28542 17.0833 6.26502 17.375C6.2379 17.765 6.27027 18.1556 6.54731 18.4697C6.60887 18.5392 6.72467 18.6107 6.80846 18.604C7.24588 18.5675 7.68562 18.5246 8.11742 18.4455C8.38517 18.3965 8.46995 18.219 8.48228 17.9493C8.49157 17.7459 8.54299 17.5445 8.57463 17.3423C8.58464 17.2802 8.60895 17.2132 8.59637 17.1552C8.52858 16.8515 8.39226 16.5724 8.10252 16.4383C7.86457 16.3286 7.71885 16.1526 7.74511 15.9301C7.81803 15.3009 7.95985 14.679 8.06771 14.0547C8.18253 13.3909 8.36624 12.7393 8.48216 12.0753C8.54702 11.7035 8.53628 11.3193 8.55826 10.9609C8.85741 10.8515 9.15741 10.761 9.44079 10.6344C10.1406 10.3226 10.7552 10.1064 11.4109 9.47555C11.5191 9.37144 11.6286 9.33678 11.7107 9.33386C12.1812 9.24361 12.7193 9.29482 13.3133 8.7457Z" fill="#FFC500"/>
<path d="M22.0488 12.1497C22.3693 12.2577 22.6156 12.1712 22.8532 11.9514C23.5642 11.2933 24.0967 10.5155 24.4128 9.60336C24.6218 8.99963 24.7398 8.36878 24.9121 7.75276C25.0102 7.4031 25.1917 7.08847 25.4286 6.80764C25.6572 6.5357 25.7426 6.20744 25.7838 5.86459C25.8064 5.67984 25.7045 5.54168 25.5904 5.41824C25.3189 5.12574 24.981 4.94111 24.5976 4.83956C24.44 4.79784 24.2716 4.90925 24.1659 5.08998C24.1227 5.16344 24.0588 5.24091 23.9851 5.27776C23.7444 5.39792 23.6735 5.61076 23.6947 5.84087C23.7212 6.12559 23.7774 6.41079 23.8571 6.68505C23.91 6.86687 23.9412 7.10184 23.8772 7.28014C23.664 7.87146 23.3122 8.30797 22.878 8.76538C22.5411 9.12076 22.2399 9.51044 21.9192 9.88892C21.742 9.72048 21.5526 9.51628 21.3389 9.34296C21.0487 9.10726 20.7455 8.88676 20.4407 8.67015C20.435 9.89428 19.8846 10.5015 19.6304 11.0987C20.3925 11.5469 21.2111 11.8678 22.0488 12.1497Z" fill="#FF0000"/>
<path d="M22.7091 18.8808C22.0872 19.325 21.8454 19.5288 21.6156 20.1363C21.4907 20.4306 21.2633 21.0519 21.2072 21.3728C21.0881 22.0548 21.1665 21.9597 21.1256 22.6504C21.0551 23.8499 20.945 25.0379 20.4596 26.1544C20.3013 26.5172 20.0856 26.8555 19.9037 27.2085C19.7666 27.4733 19.6069 27.734 19.5188 28.0153C19.3527 28.5473 19.457 29.0008 20.01 29.1007C21.3811 29.3493 22.6217 30.3084 23.0934 30.5245C23.4407 30.656 23.5828 30.6865 23.7683 30.6841C23.9537 30.6815 24.2065 30.6111 24.4734 30.5683C24.6193 30.5447 24.7491 30.425 24.8803 30.3571C25.0745 30.2562 25.1014 30.0823 24.9435 29.9334C24.7973 29.7955 24.6336 29.6723 24.465 29.5613C23.8705 29.1701 23.3348 28.717 22.8983 28.1508C22.383 27.4842 22.2864 26.7441 22.5005 25.9527C22.8635 24.6075 23.4173 23.329 23.9199 22.0334C24.2775 21.1114 24.6738 20.3533 25.0507 19.5073C25.1619 19.2578 25.4348 18.7057 25.2712 18.5029C25.1846 18.3953 25.0285 18.2884 24.7793 18.2532C24.2848 18.184 23.6703 18.1941 22.7091 18.8808Z" fill="#65D400"/>
<path d="M22.5223 14.9437C21.3584 14.9991 19.7656 15.2897 18.3646 15.5928C18.373 15.5286 18.6761 13.3248 18.7971 12.1959C18.025 12.9173 16.594 13.5642 15.3069 14.5977C13.6809 15.9034 13.0434 16.7058 12.8134 17.4008C12.8134 17.4011 12.8134 17.4011 12.8134 17.4011C12.5306 18.4216 12.7401 19.4027 12.9273 19.7986C13.1147 20.1944 13.561 20.7263 14.3702 20.8477C14.5456 20.874 14.7386 20.8855 14.9529 20.8784C15.7803 20.8502 16.5239 20.746 17.1414 20.6225C17.2227 20.5795 20.2634 19.1743 21.6863 18.5786C22.2108 17.7634 23.4039 16.4211 24.3792 16.0767C24.8771 15.9008 25.1267 15.9168 25.2778 15.9595C25.3575 15.9821 25.4162 15.9026 25.3875 15.8432C25.1187 15.2835 24.3703 14.8562 22.5223 14.9437Z" fill="#33A5EC"/>
</g>
<defs>
<clipPath id="clip0_5_784">
<rect width="75" height="36" fill="white" transform="translate(0.5)"/>
</clipPath>
</defs>
</svg>
